<?xml version="1.0" encoding="utf-8"?>
<!-- Generator: Adobe Illustrator 24.1.0, SVG Export Plug-In . SVG Version: 6.00 Build 0)  -->
<svg version="1.1" id="Layer_1" xmlns="http://www.w3.org/2000/svg" xmlns:xlink="http://www.w3.org/1999/xlink" x="0px" y="0px"
	 viewBox="0 0 3200 3200" enable-background="new 0 0 3200 3200" xml:space="preserve">
<g>
	<rect x="528.8" y="1078" fill="#555B6E" width="2142.5" height="1842.3"/>
	<g>
		<rect x="1600" y="2533" opacity="0.6" fill="#3F4554" width="194.7" height="77.4"/>
		<rect x="1989.3" y="2533" opacity="0.6" fill="#3F4554" width="194.7" height="77.4"/>
		<rect x="2378.7" y="2533" opacity="0.6" fill="#3F4554" width="194.7" height="77.4"/>
		<rect x="1794.7" y="2610.5" opacity="0.6" fill="#3F4554" width="194.7" height="77.4"/>
		<rect x="2184" y="2610.5" opacity="0.6" fill="#3F4554" width="194.7" height="77.4"/>
		<rect x="1600" y="2687.9" opacity="0.6" fill="#3F4554" width="194.7" height="77.4"/>
		<rect x="1989.3" y="2687.9" opacity="0.6" fill="#3F4554" width="194.7" height="77.4"/>
		<rect x="2378.7" y="2687.9" opacity="0.6" fill="#3F4554" width="194.7" height="77.4"/>
		<rect x="1794.7" y="2765.4" opacity="0.6" fill="#3F4554" width="194.7" height="77.4"/>
		<rect x="2184" y="2765.4" opacity="0.6" fill="#3F4554" width="194.7" height="77.4"/>
		<rect x="1600" y="2842.8" opacity="0.6" fill="#3F4554" width="194.7" height="77.4"/>
		<rect x="1989.3" y="2842.8" opacity="0.6" fill="#3F4554" width="194.7" height="77.4"/>
		<rect x="2378.7" y="2842.8" opacity="0.6" fill="#3F4554" width="194.7" height="77.4"/>
	</g>
	<rect x="540.9" y="145.2" fill="#3F4554" width="2118.3" height="83.5"/>
	<rect x="594.2" y="598.7" fill="#3F4554" width="2011.7" height="46.8"/>
	<path fill="#89B0AE" d="M642.1,228.7v370H2558v-370H642.1z M2505.8,540.9H694.2V286.4h1811.6V540.9z"/>
	<rect x="694.2" y="286.4" fill="#FFD6BA" width="1811.6" height="254.5"/>
	<polygon fill="#BEE3DB" points="2605.9,645.5 1600,645.5 594.2,645.5 437.7,1078 1600,1078 2762.4,1078 	"/>
	<rect x="217" y="2920.2" fill="#3F4554" width="2766" height="135.3"/>
	<rect x="636.5" y="1521.9" fill="#3F4554" width="687.3" height="43.4"/>
	<rect x="1600" y="2489.7" fill="#3F4554" width="973.9" height="43.4"/>
	<rect x="1600" y="1543.5" fill="#3F4554" width="973.9" height="41.6"/>
	<g>
		<rect x="666.4" y="1585.1" fill="#FFD6BA" width="627.4" height="1335.1"/>
		<rect x="666.4" y="1585.1" fill="#F4C3A2" width="47.8" height="1335.1"/>
		<rect x="754.5" y="1585.1" opacity="0.5" fill="#997964" width="7.5" height="1335.1"/>
		<rect x="849.7" y="1585.1" opacity="0.5" fill="#997964" width="7.5" height="1335.1"/>
		<rect x="945.1" y="1585.1" opacity="0.5" fill="#997964" width="7.5" height="1335.1"/>
		<rect x="1040.4" y="1585.1" opacity="0.5" fill="#997964" width="7.5" height="1335.1"/>
		<rect x="1143.2" y="1585.1" opacity="0.5" fill="#997964" width="7.5" height="1335.1"/>
		<rect x="1238.6" y="1585.1" opacity="0.5" fill="#997964" width="7.5" height="1335.1"/>
		<rect x="761.8" y="1585.1" fill="#F4C3A2" width="47.8" height="1335.1"/>
		<rect x="857.2" y="1585.1" fill="#F4C3A2" width="47.8" height="1335.1"/>
		<rect x="952.5" y="1585.1" fill="#F4C3A2" width="47.8" height="1335.1"/>
		<rect x="1047.9" y="1585.1" fill="#F4C3A2" width="47.8" height="1335.1"/>
		<rect x="1150.7" y="1585.1" fill="#F4C3A2" width="47.8" height="1335.1"/>
		<rect x="1246.1" y="1585.1" fill="#F4C3A2" width="47.8" height="1335.1"/>
	</g>
	<rect x="1511.9" y="1585.1" fill="#F4C3A2" width="46.7" height="1335.1"/>
	<rect x="1457.9" y="1078" fill="#FFD6BA" width="142.1" height="1842.3"/>
	<rect x="1457.9" y="1078" fill="#F4C3A2" width="57.4" height="1842.3"/>
	<rect x="2573.9" y="1078" fill="#FFD6BA" width="97.4" height="1842.3"/>
	<rect x="2573.9" y="1078" fill="#F4C3A2" width="48.7" height="1842.3"/>
	<path fill="#3F4554" d="M728,2396.8h-27.6c-2.1,0-3.8-1.7-3.8-3.8v-280.6c0-2.1,1.7-3.8,3.8-3.8H728c2.1,0,3.8,1.7,3.8,3.8V2393
		C731.8,2395.1,730.1,2396.8,728,2396.8z"/>
	<polygon opacity="0.6" fill="#89B0AE" points="594.2,645.5 515.9,861.7 2684.1,861.7 2605.9,645.5 	"/>
	<polygon opacity="0.5" fill="#3F4554" points="2671.3,1078 528.8,2108.6 528.8,1078 	"/>
	<path fill="#89B0AE" d="M437.7,1078v136.9h0c0.6,22.5,47.6,40.8,105.6,40.8s105-18.3,105.6-40.8c0-0.1,0-0.3,0-0.5
		c0-22.8,47.3-41.3,105.7-41.3s105.6,18.5,105.6,41.3c0,0.1,0,0.3,0,0.5c0.6,22.5,47.6,40.8,105.6,40.8c58,0,105-18.3,105.6-40.8
		c0-0.1,0-0.3,0-0.5c0-22.8,47.3-41.3,105.7-41.3c58.4,0,105.7,18.5,105.7,41.3c0,0.1,0,0.3,0,0.5c0.6,22.5,47.6,40.8,105.6,40.8
		c58,0,105-18.3,105.7-40.8c0-0.1,0-0.3,0-0.5c0-22.8,47.3-41.3,105.6-41.3c58.3,0,105.7,18.5,105.7,41.3c0,0.1,0,0.3,0,0.5
		c0.6,22.5,47.7,40.8,105.7,40.8c58,0,105-18.3,105.6-40.8c0-0.1,0-0.3,0-0.5c0-22.8,47.3-41.3,105.7-41.3
		c58.3,0,105.7,18.5,105.7,41.3c0,0.1,0,0.3,0,0.5c0.6,22.5,47.6,40.8,105.6,40.8c58,0,105-18.3,105.7-40.8c0-0.1,0-0.3,0-0.5
		c0-22.8,47.3-41.3,105.6-41.3s105.7,18.5,105.7,41.3c0,0.1,0,0.3,0,0.5c0.6,22.5,47.7,40.8,105.6,40.8c58,0,105-18.3,105.6-40.8h0
		V1078H437.7z"/>
	<polygon opacity="0.25" fill="#3F4554" points="2558,228.7 1752.7,598.7 642.1,598.7 642.1,228.7 	"/>
	<polygon fill="#FAF9F9" points="2573.9,1585.1 2301.4,1585.1 1600,1943.2 1600,2156.3 2573.9,1659.1 	"/>
	<polygon fill="#FAF9F9" points="1600,1585.1 1600,1839.3 2097.9,1585.1 	"/>
	<polygon fill="#FAF9F9" points="1600,2327.7 1600,2489.7 2573.9,2489.7 2573.9,1830.5 	"/>
	<polygon fill="#E2E2E2" points="2097.9,1585.1 1600,1839.3 1600,1943.2 2301.4,1585.1 	"/>
	<polygon fill="#E2E2E2" points="2573.9,1659.1 1600,2156.3 1600,2327.7 2573.9,1830.5 	"/>
	<rect x="1794.8" y="2533" opacity="0.6" fill="#555B6E" width="194.8" height="77.4"/>
</g>
</svg>
