<?xml version="1.0" encoding="UTF-8" standalone="no"?>
<!-- Created with Inkscape (http://www.inkscape.org/) -->

<svg
   xmlns:dc="http://purl.org/dc/elements/1.1/"
   xmlns:cc="http://creativecommons.org/ns#"
   xmlns:rdf="http://www.w3.org/1999/02/22-rdf-syntax-ns#"
   xmlns:svg="http://www.w3.org/2000/svg"
   xmlns="http://www.w3.org/2000/svg"
   xmlns:sodipodi="http://sodipodi.sourceforge.net/DTD/sodipodi-0.dtd"
   xmlns:inkscape="http://www.inkscape.org/namespaces/inkscape"
   width="3000"
   height="3000"
   viewBox="0 0 793.74999 793.74999"
   version="1.1"
   id="svg8"
   inkscape:version="0.92.4 (5da689c313, 2019-01-14)"
   sodipodi:docname="Stock_chefhat_2.svg"
   inkscape:export-filename="C:\Users\Z83 II\Documents\habibati\ZANATA_HITAM.png"
   inkscape:export-xdpi="300"
   inkscape:export-ydpi="300">
  <defs
     id="defs2" />
  <sodipodi:namedview
     id="base"
     pagecolor="#ffffff"
     bordercolor="#666666"
     borderopacity="1.0"
     inkscape:pageopacity="0.0"
     inkscape:pageshadow="2"
     inkscape:zoom="0.12374369"
     inkscape:cx="1775.9047"
     inkscape:cy="1481.9629"
     inkscape:document-units="mm"
     inkscape:current-layer="layer1"
     showgrid="false"
     inkscape:window-width="1366"
     inkscape:window-height="705"
     inkscape:window-x="-8"
     inkscape:window-y="-8"
     inkscape:window-maximized="1"
     units="px" />
  <metadata
     id="metadata5">
    <rdf:RDF>
      <cc:Work
         rdf:about="">
        <dc:format>image/svg+xml</dc:format>
        <dc:type
           rdf:resource="http://purl.org/dc/dcmitype/StillImage" />
        <dc:title></dc:title>
      </cc:Work>
    </rdf:RDF>
  </metadata>
  <g
     inkscape:label="Layer 1"
     inkscape:groupmode="layer"
     id="layer1"
     transform="translate(0,496.74998)">
    <g
       style="fill:rgb(233, 173, 62);fill-opacity:1"
       transform="matrix(2.4688652,0,0,2.4688652,163.67766,-619.9529)"
       id="g862">
      <path
         inkscape:connector-curvature="0"
         style="opacity:1;fill:rgb(233, 173, 62);;fill-opacity:1;stroke:none;stroke-width:8.80629921;stroke-miterlimit:4;stroke-dasharray:none;stroke-opacity:1"
         d="m 361.05664,323.13086 c -35.11376,-0.18128 -56.1924,4.96341 -85.40039,19.64258 -17.24241,8.66558 -26.16103,14.51794 -36.00195,23.6289 -15.37559,14.23508 -33.29297,39.94543 -33.29297,47.77344 0,2.302 2.96879,5.39134 11.66797,12.14649 14.50244,11.26151 35.76311,32.33907 41.41015,41.05273 2.33756,3.60692 4.01573,6.79287 3.72852,7.08008 -0.69812,0.69811 -20.91719,-13.04256 -28.65039,-19.4707 -27.769,-23.08264 -56.28482,-41.69979 -76.82227,-50.15626 -8.78939,-3.61912 -28.66909,-7.30327 -39.33398,-7.28906 -32.657671,0.0435 -69.819737,19.43473 -95.279299,49.7168 -33.121493,39.39534 -31.5843885,83.12948 4.109375,116.90625 20.865346,19.74474 55.946898,37.52589 87.001954,44.09766 5.77772,1.22267 7.37764,1.17273 8.26172,-0.25782 0.60296,-0.97561 1.57808,-1.291 2.16797,-0.70117 0.58986,0.58983 1.07226,30.08367 1.07226,65.54297 v 64.47266 l 6.66602,-3.96485 c 3.66666,-2.1801 14.16731,-7.76563 23.33398,-12.41211 26.16607,-13.26323 54.48409,-22.42977 86.78516,-28.0957 75.47515,-13.23904 199.92567,-10.93696 263.21484,4.86914 24.57819,6.13829 57.14628,18.51521 71.33399,27.11133 2.56667,1.55509 8.56536,4.98383 13.33203,7.61914 l 8.66797,4.79297 0.0605,-64.49219 c 0.034,-35.47068 0.51589,-64.94752 1.07227,-65.50391 0.55638,-0.55638 1.49474,-0.23003 2.08594,0.72657 1.31969,2.13532 10.37368,2.24238 19.44726,0.23047 18.82625,-4.17434 48.05758,-16.05719 59.53907,-24.20313 1.94653,-1.38104 3.92253,-2.50976 4.39062,-2.50976 1.90723,0 16.59711,-11.69909 24.25977,-19.32032 9.42746,-9.37655 17.75751,-21.66248 22.02539,-32.48633 2.49569,-6.32934 2.97518,-10.17996 3.01562,-24.19335 0.0469,-16.19725 -0.0896,-16.99514 -4.80859,-28.33399 -6.48858,-15.59036 -13.73044,-26.03227 -27.57031,-39.75195 -18.02593,-17.86946 -38.71959,-30.39869 -59.73633,-36.16602 -14.95268,-4.10324 -38.31394,-4.14155 -53.52344,-0.0879 -23.11124,6.15954 -46.23341,20.04262 -86.25781,51.78906 -15.48798,12.28472 -30.00156,22.32852 -30.92774,21.40235 -1.37416,-1.3742 11.46946,-17.82059 21.81641,-27.93555 5.69321,-5.56558 14.08753,-12.99808 18.6543,-16.51758 5.64291,-4.3488 8.32877,-7.34841 8.38085,-9.36328 0.085,-3.28581 -7.00159,-18.43701 -12.02734,-25.7168 -20.83385,-30.17761 -39.64424,-44.54408 -79.33594,-60.5957 -18.63046,-7.5343 -29.48886,-9.74286 -52.56054,-10.68555 -5.65371,-0.231 -10.95641,-0.36472 -15.97266,-0.39062 z"
         transform="scale(0.26458333)"
         id="path858" />
      <path
         style="opacity:1;fill:rgb(233, 173, 62);fill-opacity:1;stroke:none;stroke-width:2.32999992;stroke-miterlimit:4;stroke-dasharray:none;stroke-opacity:1"
         d="m 95.827227,182.85967 c -1.67679,0 -3.35323,0.0762 -5.37952,0.22893 -20.688815,1.55923 -21.690983,1.66305 -29.192531,3.02565 -6.942019,1.26097 -20.271512,5.28018 -25.454777,7.67499 l -2.682523,1.2392 -0.2589,6.37119 c -0.241369,5.95021 -0.761143,10.32376 -1.404048,11.81064 -0.285605,0.66055 0.941374,0.0287 5.22759,-2.69182 9.436898,-5.9896 19.818183,-8.8989 36.919709,-10.34666 10.005184,-0.84701 33.888953,-0.85808 44.097573,-0.0207 17.31612,1.42048 26.91993,4.0926 37.01221,10.29808 2.97901,1.83172 5.11572,3.0086 5.46168,3.0086 0.0968,0 -0.0724,-0.59471 -0.37621,-1.32188 -0.3952,-0.94585 -0.65925,-3.56389 -0.9281,-9.19893 l -0.37621,-7.87652 -1.61127,-0.81183 c -5.20323,-2.62138 -19.03013,-6.75393 -28.24634,-8.44238 -4.98932,-0.91406 -7.62254,-1.22699 -14.99288,-1.78129 -3.88055,-0.29184 -9.47649,-0.71338 -12.43542,-0.93637 -2.026293,-0.15272 -3.703243,-0.22893 -5.380033,-0.22893 z"
         id="path860"
         inkscape:connector-curvature="0" />
    </g>
    <path
       style="fill:rgb(233, 173, 62);fill-opacity:1;stroke-width:1.63562274"
       d="m 391.55619,175.93393 c -1.20986,-0.7752 -4.84193,-1.96495 -8.07122,-2.6437 -10.80596,-2.26978 -12.80632,-4.04812 -11.52909,-10.23892 1.83458,-8.89191 -1.33553,-33.46277 -5.77363,-44.75086 -11.20394,-28.496768 -48.48222,-68.098558 -71.88921,-76.369928 -8.03516,-2.83946 -9.18935,-1.53544 -5.68191,6.41822 1.20459,2.73171 5.17427,14.93968 8.82149,27.12884 10.68058,35.694728 23.06961,61.748768 34.45927,72.467378 3.73483,3.51488 6.71725,6.74659 6.62746,7.18152 -0.41371,1.99476 -47.82415,-23.36786 -48.82941,-26.12104 -0.26317,-0.72198 0.88043,-3.7951 2.54308,-6.82893 4.04697,-7.38585 5.14367,-28.497208 2.23096,-42.937778 -3.97525,-19.70806 -17.86434,-46.03067 -31.51104,-59.71955 -7.23338,-7.255856 -21.29246,-17.68749 -22.99837,-17.064566 -0.82267,0.300528 -3.11442,6.060232 -5.09274,12.799622 -2.84656,9.696854 -3.38197,14.388584 -2.56667,22.486494 1.91855,19.0511 6.07609,35.80373 12.59689,50.75812 3.61777,8.29656 3.64416,8.75166 0.40461,6.97115 -4.31038,-2.36908 -38.24103,-36.21761 -39.45601,-39.36052 -0.48883,-1.26456 -0.5582,-7.95617 -0.15417,-14.87021 0.53392,-9.13498 -0.5289,-17.6864 -3.88835,-31.286137 -5.97232,-24.176474 -10.30779,-33.75264 -20.24938,-44.726107 -15.84568,-17.490296 -22.75302,-12.344925 -20.98507,15.632493 0.69396,10.983009 0.61997,11.363881 -1.61447,8.310656 -3.88166,-5.303988 -13.16725,-24.72992 -12.14307,-25.403781 2.89012,-1.901507 7.9545,-19.687441 8.2046,-28.814344 0.52581,-19.185102 -6.95516,-42.615822 -14.81682,-46.407262 -6.88117,-3.31861 -9.82532,-1.79315 -13.25985,6.87166 l -3.18485,8.034813 -1.98005,-8.445133 c -1.91017,-8.14715 -1.84976,-8.576 1.71304,-12.15252 5.5455,-5.56651 10.48315,-25.70492 9.65064,-39.36024 -0.36512,-5.99018 -1.25247,-11.01259 -1.97184,-11.16099 -2.29484,-0.4733 -8.76773,5.92006 -12.42248,12.27022 -1.946,3.38122 -4.0487,6.0424 -4.67261,5.91364 -0.62384,-0.12904 -1.4476,-4.69496 -1.83037,-10.14741 l -0.69597,-9.91333 6.68948,-4.68735 c 8.19635,-5.74324 11.10977,-11.85145 10.41458,-21.8345 -0.74259,-10.66279 -5.33064,-13.91324 -12.91718,-9.15139 l -5.52838,3.46999 -0.0689,-5.386 c -0.0394,-3.07281 0.69529,-5.67688 1.70944,-6.06322 5.17064,-1.96888 10.9771,-10.90636 12.7967,-19.69718 2.04023,-9.86624 1.25485,-10.94865 -5.89224,-8.12138 -4.28579,1.69477 -4.4509,1.62125 -3.76994,-1.67935 0.88338,-4.28053 -2.57927,-17.35841 -4.7122,-17.79847 -0.86308,-0.17828 -3.38992,0.87411 -5.61518,2.33821 -3.17958,2.09198 -4.06768,3.87521 -4.14796,8.3295 -0.0947,5.28273 -2.419095,7.32398 -3.856535,3.38747 -0.32668,-0.89553 -2.62865,-2.84448 -5.11468,-4.33092 -3.814897,-2.28102 -5.111478,-2.31362 -8.310279,-0.20884 -2.084643,1.37163 -3.927709,3.15938 -4.095427,3.97277 -0.58068,2.81104 6.05147,13.20647 11.194668,17.54867 l 5.161538,4.35765 -7.402896,-2.56844 c -4.937209,-1.71298 -7.592141,-1.98831 -7.971145,-0.82582 -0.312413,0.95839 -0.892075,2.61509 -1.287786,3.68161 -2.774192,7.47781 9.067409,23.16416 19.039727,25.2216 2.01832,0.41625 3.061615,2.55516 3.345915,6.85912 0.54081,8.19018 -0.64727,8.65744 -5.199675,2.04872 -4.620893,-6.70611 -15.902426,-11.09782 -20.029331,-7.79725 -2.200575,1.76007 -2.290088,3.42242 -0.554771,10.29523 2.364626,9.36264 10.393941,19.01769 20.865882,25.09025 6.691075,3.88003 6.962435,4.38563 8.317625,15.49418 0.77064,6.31573 0.75417,11.34972 -0.0367,11.18665 -0.79057,-0.16334 -1.30286,-0.94895 -1.13837,-1.74628 0.38118,-1.8464 -10.458975,-11.53907 -15.602849,-13.95151 -5.067438,-2.37644 -11.670589,0.43904 -12.696967,5.41394 -0.999144,4.84342 5.22738,17.82706 12.634994,26.34584 5.253257,6.04142 10.213687,9.33901 20.829242,13.84723 3.06043,1.29967 4.73785,5.0272 8.23375,18.298085 l 4.39042,16.665866 -7.85821,-3.929236 c -10.12913,-5.064857 -23.096307,-7.749638 -27.571791,-5.706492 -3.451992,1.574459 -3.479939,1.718406 -1.595648,8.210209 2.264212,7.800201 14.986744,25.827372 22.618019,32.04853 7.53712,6.144379 20.15208,12.670785 27.36974,14.159874 5.33044,1.099795 6.54936,2.241969 9.58886,8.985672 3.82944,8.496305 15.64774,29.732634 20.67969,37.159502 2.70363,3.990462 2.74221,4.432022 0.24824,2.843972 C 148.04766,11.633033 142.90697,9.683441 130.08687,9.107855 c -6.96898,-0.313092 -13.72354,-0.02038 -15.01024,0.651924 -8.75952,4.570973 2.762,26.579273 21.26237,40.614923 l 10.83186,8.21785 27.22675,5.64421 27.22671,5.64425 6.49751,7.57683 6.49744,7.57679 -7.11252,-1.46746 c -9.41949,-1.94338 -22.64746,-2.07934 -29.84497,-0.30698 -16.44402,4.04938 -19.13237,5.27265 -19.91411,9.06154 -2.10353,10.195048 19.45605,29.026538 40.38683,35.276528 15.53377,4.63842 43.87787,7.5626 59.08942,6.09613 l 11.21083,-1.08088 8.18916,5.82273 c 4.50411,3.20243 12.33372,8.44733 17.39929,11.65524 5.0655,3.20797 9.12296,6.30781 9.01664,6.8886 -0.10765,0.58058 -4.0433,0.79845 -8.74889,0.48373 -18.86032,-1.26151 -37.81621,3.88475 -38.20931,10.37326 -0.13175,2.15931 3.26546,6.40959 9.63855,12.06185 9.80599,8.69686 9.90926,8.74379 29.34891,13.34037 25.31851,5.98664 33.99381,5.29967 49.97288,-3.95722 7.11163,-4.11998 12.41338,-6.14503 13.97385,-5.3374 1.38297,0.71573 6.38334,2.58392 11.11188,4.15166 4.72857,1.5677 9.78463,3.46724 11.23586,4.22114 2.63754,1.3702 4.86073,-1.0111 10.21997,-10.94678 1.61399,-2.99234 1.60655,-4.38556 -0.0306,-5.43367 z M 98.705655,-221.20224 c -1.63463,-1.36249 -2.50032,-2.78771 -1.92368,-3.16708 1.59276,-1.04798 5.648945,1.9939 5.248305,3.93589 -0.24416,1.18469 -1.26374,0.94902 -3.324555,-0.76884 z"
       id="path917"
       inkscape:connector-curvature="0"
       sodipodi:nodetypes="cccsccsccsccsscssccccsssccsccccccssssccsccccccsscscscsccscsssccsscsscssssccccsscccssccccccscsccccscccccscsscccccsc" />
    <path
       sodipodi:nodetypes="cccsccsccsccsscssccccsssccsccccccssssccsccccccsscscscsccscsssccsscsscssssccccsscccssccccccscsccccscccccscsscccccsc"
       inkscape:connector-curvature="0"
       id="path963"
       d="m 408.81511,175.93393 c 1.20986,-0.7752 4.84193,-1.96495 8.07122,-2.6437 10.80596,-2.26978 12.80633,-4.04812 11.5291,-10.23892 -1.83459,-8.89191 1.33553,-33.46277 5.77363,-44.75086 11.20394,-28.496768 48.48222,-68.098558 71.88921,-76.369928 8.03516,-2.83946 9.18935,-1.53544 5.68191,6.41822 -1.20459,2.73171 -5.17427,14.93968 -8.82149,27.12884 -10.68058,35.694728 -23.06961,61.748768 -34.45927,72.467378 -3.73483,3.51488 -6.71725,6.74659 -6.62746,7.18152 0.41371,1.99476 47.82415,-23.36786 48.82941,-26.12104 0.26317,-0.72198 -0.88043,-3.7951 -2.54308,-6.82893 -4.04697,-7.38585 -5.14367,-28.497208 -2.23096,-42.937778 3.97525,-19.70806 17.86434,-46.03067 31.51104,-59.71955 7.23338,-7.255856 21.29246,-17.68749 22.99837,-17.064566 0.82267,0.300528 3.11442,6.060232 5.09274,12.799622 2.84656,9.696854 3.38197,14.388584 2.56667,22.486494 -1.91855,19.0511 -6.07609,35.80373 -12.59689,50.75812 -3.61777,8.29656 -3.64416,8.75166 -0.40461,6.97115 4.31038,-2.36908 38.24103,-36.21761 39.45601,-39.36052 0.48883,-1.26456 0.5582,-7.95617 0.15417,-14.87021 -0.53392,-9.13498 0.5289,-17.6864 3.88835,-31.286137 5.97232,-24.176474 10.30779,-33.75264 20.24938,-44.726107 15.84568,-17.490296 22.75302,-12.344925 20.98507,15.632493 -0.69396,10.983009 -0.61997,11.363881 1.61447,8.310656 3.88166,-5.303988 13.16725,-24.72992 12.14307,-25.403781 -2.89012,-1.901507 -7.9545,-19.687441 -8.2046,-28.814344 -0.52581,-19.185102 6.95516,-42.615822 14.81682,-46.407262 6.88117,-3.31861 9.82532,-1.79315 13.25985,6.87166 l 3.18485,8.034813 1.98005,-8.445133 c 1.91017,-8.14715 1.84976,-8.576 -1.71304,-12.15252 -5.5455,-5.56651 -10.48315,-25.70492 -9.65064,-39.36024 0.36512,-5.99018 1.25247,-11.01259 1.97184,-11.16099 2.29484,-0.4733 8.76773,5.92006 12.42248,12.27022 1.946,3.38122 4.0487,6.0424 4.67261,5.91364 0.62384,-0.12904 1.4476,-4.69496 1.83037,-10.14741 l 0.69597,-9.91333 -6.68948,-4.68735 c -8.19635,-5.74324 -11.10977,-11.85145 -10.41458,-21.8345 0.74259,-10.66279 5.33064,-13.91324 12.91718,-9.15139 l 5.52838,3.46999 0.0689,-5.386 c 0.0394,-3.07281 -0.69529,-5.67688 -1.70944,-6.06322 -5.17064,-1.96888 -10.9771,-10.90636 -12.7967,-19.69718 -2.04023,-9.86624 -1.25485,-10.94865 5.89224,-8.12138 4.28579,1.69477 4.4509,1.62125 3.76994,-1.67935 -0.88338,-4.28053 2.57927,-17.35841 4.7122,-17.79847 0.86308,-0.17828 3.38992,0.87411 5.61518,2.33821 3.17958,2.09198 4.06768,3.87521 4.14796,8.3295 0.0947,5.28273 2.4191,7.32398 3.85654,3.38747 0.32668,-0.89553 2.62865,-2.84448 5.11468,-4.33092 3.81489,-2.28102 5.11147,-2.31362 8.31028,-0.20884 2.08464,1.37163 3.9277,3.15938 4.09542,3.97277 0.58068,2.81104 -6.05147,13.20647 -11.19467,17.54867 l -5.16153,4.35765 7.40289,-2.56844 c 4.93721,-1.71298 7.59214,-1.98831 7.97115,-0.82582 0.31241,0.95839 0.89207,2.61509 1.28778,3.68161 2.7742,7.47781 -9.06741,23.16416 -19.03972,25.2216 -2.01832,0.41625 -3.06162,2.55516 -3.34592,6.85912 -0.54081,8.19018 0.64727,8.65744 5.19968,2.04872 4.62089,-6.70611 15.90242,-11.09782 20.02933,-7.79725 2.20057,1.76007 2.29009,3.42242 0.55477,10.29523 -2.36463,9.36264 -10.39394,19.01769 -20.86588,25.09025 -6.69108,3.88003 -6.96244,4.38563 -8.31763,15.49418 -0.77064,6.31573 -0.75417,11.34972 0.0367,11.18665 0.79057,-0.16334 1.30286,-0.94895 1.13837,-1.74628 -0.38118,-1.8464 10.45898,-11.53907 15.60285,-13.95151 5.06744,-2.37644 11.67059,0.43904 12.69697,5.41394 0.99914,4.84342 -5.22738,17.82706 -12.635,26.34584 -5.25325,6.04142 -10.21368,9.33901 -20.82924,13.84723 -3.06043,1.29967 -4.73785,5.0272 -8.23375,18.298085 l -4.39042,16.665866 7.85821,-3.929236 c 10.12913,-5.064857 23.09631,-7.749638 27.57179,-5.706492 3.45199,1.574459 3.47994,1.718406 1.59565,8.210209 -2.26421,7.800201 -14.98674,25.827372 -22.61802,32.04853 -7.53712,6.144379 -20.15208,12.670785 -27.36974,14.159874 -5.33044,1.099795 -6.54936,2.241969 -9.58886,8.985672 -3.82944,8.496305 -15.64774,29.732634 -20.67969,37.159502 -2.70363,3.990462 -2.74221,4.432022 -0.24824,2.843972 16.64539,-10.599179 21.78608,-12.548771 34.60618,-13.124357 6.96898,-0.313092 13.72354,-0.02038 15.01024,0.651924 8.75952,4.570973 -2.762,26.579273 -21.26237,40.614923 l -10.83186,8.21785 -27.22675,5.64421 -27.22671,5.64425 -6.49751,7.57683 -6.49744,7.57679 7.11252,-1.46746 c 9.41949,-1.94338 22.64746,-2.07934 29.84497,-0.30698 16.44402,4.04938 19.13237,5.27265 19.91411,9.06154 2.10353,10.195048 -19.45605,29.026538 -40.38683,35.276528 -15.53377,4.63842 -43.87787,7.5626 -59.08942,6.09613 l -11.21083,-1.08088 -8.18916,5.82273 c -4.50411,3.20243 -12.33372,8.44733 -17.39929,11.65524 -5.0655,3.20797 -9.12296,6.30781 -9.01664,6.8886 0.10765,0.58058 4.0433,0.79845 8.74889,0.48373 18.86032,-1.26151 37.81621,3.88475 38.20931,10.37326 0.13175,2.15931 -3.26546,6.40959 -9.63855,12.06185 -9.80599,8.69686 -9.90926,8.74379 -29.34891,13.34037 -25.31851,5.98664 -33.99381,5.29967 -49.97288,-3.95722 -7.11163,-4.11998 -12.41338,-6.14503 -13.97385,-5.3374 -1.38297,0.71573 -6.38334,2.58392 -11.11188,4.15166 -4.72858,1.5677 -9.78464,3.46724 -11.23587,4.22114 -2.63754,1.3702 -4.86073,-1.0111 -10.21997,-10.94678 -1.61399,-2.99234 -1.60655,-4.38556 0.0306,-5.43367 z m 292.85055,-397.13617 c 1.63463,-1.36249 2.50032,-2.78771 1.92368,-3.16708 -1.59276,-1.04798 -5.64895,1.9939 -5.24831,3.93589 0.24416,1.18469 1.26374,0.94902 3.32456,-0.76884 z"
       style="fill:rgb(233, 173, 62);fill-opacity:1;stroke-width:1.63562274" />
  </g>
</svg>
