<?xml version="1.0" encoding="UTF-8"?>
<svg version="1.1" viewBox="0 0 900 900" xmlns="http://www.w3.org/2000/svg">
 <g transform="translate(0 -152.36)">
  <path d="m569.32 1002.3c-5.4709-4.3936-4.7368-12.993-6.0621-19.491-3.4146-6.6307-5.7246-13.98-6.0513-21.733-1.2309-9.6169-0.97508-19.43-2.5228-28.975-5.6071-1.0656-10.446 8.6749-17.804 7.292-13.826 0.59814-27.367-3.1582-41.011-4.8518-7.7809-1.8868-15.694-3.4624-23.028-6.8025-13.077-3.8985-25.16-10.315-37.679-15.605-15.125-11.426-29.501-24.177-40.908-39.456-3.3013-6.3147-13.812-13.047-9.5437-20.528 5.7158 3.8067 7.8775 12.102 14.648 15.747 7.4343 7.3113 13.707 15.775 22.229 21.932 7.2884 7.3851 15.799 13.524 24.768 18.652 4.2199 1.6971 11.21 6.7065 14.033 5.8865-5.3555-6.0642-13.812-7.9237-19.852-13.257-7.212-6.6344-14.32-13.819-19.369-22.221 4.7873 4.5858 10.82 9.819 16.489 14.544 7.0325 5.9395 16.075 9.166 23.056 14.853 10.17 3.2386 19.366 9.6802 30.159 10.902 6.3899 1.5736 14.89-1.7481 21.879-3.4913 4.868-0.52015 10.848-9.9805 13.657-7.4889-3.9097 6.7846-12.583 10.421-20.178 11.379-3.766-0.57503-13.071 2.0064-4.5679 3.1098 7.8755 3.5672 16.75 3.3783 24.642-0.16409 5.0464-4.8315 11.103-10.839 11.862-18.405 3.1052-8.0911 6.7118-16.382 7.0962-25.283-1.9097-6.5456-0.45781-13.547-1.0093-20.15-4.2679-8.3713-8.7696-16.77-15.695-23.294-5.2949-3.0264-7.0363-14.763 1.6682-11.032 4.4963-0.87645 2.7438-9.4529 4.8499-13.643 0.89575-4.4601 0.17933 2.5086 0.22341 4.086-0.0899 3.2154-2.1175 14.825 2.6792 7.0678 1.6987-8.2002 0.56058-16.711 0.77633-25.054-3.6974-3.9919-8.8246-7.1993-10.933-12.252-0.67084-9.0066 1.3846-17.799 3.9546-26.341 4.1007-7.749-2.4432-13.607-9.4253-15.76-8.6303-7.6648-7.6169 8.9674-13.243 11.706-0.24959 10.03 5.9895-2.7852 8.0825-2.3136 0.36429 7.9397-7.4828 14.563-4.2793 22.683 0.92087 4.3249 5.3023 13.933-3.2068 9.9629-4.5099-4.7186-14.308-5.4573-13.163 2.9598 7.3958 4.8673 16.046 7.1462 24.532 9.1652 5.0552 0.60462 7.2306 8.374 0.15097 5.5077-3.6941-1.4202-17.06-0.16377-7.0802 2.6183 6.4959 2.2711 14.952 5.1638 16.715 12.641-3.5463 4.5962-12.654 2.1677-17.647-0.0519-5.572-3.9099-11.934-7.5206-17.601-10.285 2.5804 8.0652 10.624 13.829 11.825 22.494-0.71015 11.259-13.237 2.1609-14.431-4.5252-4.1284-8.5701-8.8155-17.659-17.77-22.066-6.1349-2.5459-11.755-8.1358-15.333-12.344-1.0307 3.1724 4.7238 10.575-2.8019 7.0961-6.5075-5.8347-3.3253-16.005-7.571-23.143-1.6415-2.8614-10.102-7.9477-1.5684-6.0639 8.4936 3.2619 6.7851 14.921 14.706 18.174 4.1462 6.7508 12.558 8.0181 18.452 12.68 4.294 3.9694 3.1497-4.4343 6.8905-5.4778-4.318-7.9097 3.4445-13.762 5.443-20.936 3.7031-8.7799 10.232-15.913 13.714-24.828 1.5692-4.5585 4.1306-10.783 3.3721-15.119-7.5431-1.6251-15.268-2.3377-22.608-4.7883-7.4584-1.6961-16.11 1.0528-22.75-3.2493-3.3187-1.6623-8.2141-10.099-1.1203-5.8617 5.4531 5.3773 13.439 3.1422 20.271 3.8049 7.1873 1.0264 13.342-2.3145 20.722-0.0749 5.4209 1.7314 17.322 0.64515 17.47 7.5172-1.6788 5.3027 5.7144 6.4776 9.4264 8.0308 4.336-4.9092 4.495-12.013 8.4489-17.213-1.8146 2.663-7.7245 10.252-5.5365 2.1937 1.4012-3.2156 6.2558-13.145 9.0995-9.6014-5.1846 8.9377 4.6605-1.47 6.7648-4.4834 3.6337-3.3773 8.76-3.0211 9.7188-8.175 3.3182 0.48802 4.0395-6.0673 8.1869-6.5503-3.6196-6.0067-9.3789-10.862-15.207-14.705-4.3657-5.3054-6.3391-11.838-12.144-16.715-4.1652-8.3383-11.348-14.313-17.984-20.59-3.6429-2.1219-6.5792-10.661 0.0765-5.6934 4.4525 5.7438 10.136 10.565 15.541 15.527 5.5144 5.4092 6.6504-6.3014 11.141-8.1446 2.6102-7.4582 1.0016-15.786 3.4681-23.419 1.716-7.8138 6.065-15.822 12.624-20.49 7.2885-4.145 15.453-6.2638 22.816-10.131 9.6658-3.4373 18.382-9.0378 25.845-16.011 6.6576-2.7695 12.556-10.328 9.5352-17.728-0.45688-6.7499-0.58251-16.479-10.133-13.499-8.1328 0.7186-16.027 4.4168-24.33 2.5587-7.29-1.4715-15.068-0.77967-22.036-3.4995-6.373-4.7381-13.045-10.9-14.738-18.966 1.3564-7.4468 9.6964-12.221 5.594-20.545-5.876-4.795-5.5179-12.063-0.79436-17.48-1.7103-7.9709-11.511-9.1669-15.159-16.039 0.13556-4.0369 9.8266-10.407 1.5814-13.236-5.4349-0.68637-11.159 0.20012-16.496-0.48728-3.4686-2.5578-8.4746-4.3342-8.8539-9.2444-7.1823-6.3481 2.4289-11.977 5.1385-17.98 4.2939-6.2225 9.1402-12.102 11.771-19.263 3.2664-5.0716 11.223-13.01 5.1-18.56-4.8544-4.4356-12.879-13.264-4.5125-18.331 8.1553-11.936 4.8204-28.543 14.882-39.574 3.4719-4.5926 1.7825-11.542 6.0879-15.89-7.9688 3.7441-17.423-2.7723-23.104-8.2603-9.1162 3.1618-8.17-10.252-10.953-15.457-3.0793-6.4359 0.71513-12.909-1.2002-19.355-1.9944-8.3402-6.3808-15.968-7.9909-24.411 2.9214-3.8554 0.67925-9.1439 6.9712-10.322 1.1067-4.4994 5.0445-5.3767 7.3296-2.8952 2.0416-7.1881 11.774-7.0741 17.296-10.741 8.9754-4.4725 18.347-8.0564 28.095-10.39 6.787-2.598 14.056-3.1062 20.892-5.6907 7.489-1.4476 14.814-3.3543 22.38-4.3472 11.444-1.3622 22.966 0.72836 34.416-0.83713 10.32-0.95218 20.724-2.1283 31.024-0.2785 6.8562 1.4994 16.964-1.3254 21.185 5.6202 2.1769 4.6587-0.44482 7.3918-3.9948 8.3152 11.068-0.24351 1.1286 13.916-4.8321 6.9996-5.5352-4.7409-10.046-11.873-18.455-10.689-12.193-2.0952 8.9835 13.579-2.5515 12.385-6.4483-2.0065-10.016-8.2399-13.367-13.658-14.545 0.43657-29.168-0.0386-43.638 1.5559-7.6369 1.0309-15.469 1.8409-22.484 5.4703-10.717 5.4961-23.137 5.905-33.88 11.265-7.8578 3.6457-16.079 6.92-23.238 11.755-5.6115 3.1642-11.138 4.6396-9.9214 12.224-2.9524 3.9284-0.0702 13.311 4.5488 6.3338 3.4466-3.0797 8.8441-7.5563 13.384-5.8473-3.8687 4.0296-15.188 8.3986-13.648 13.3 6.5889-3.6284 11.212-10.221 18.699-12.382 5.1398 2.8444-7.3933 5.4862-9.315 8.7898-6.4393 6.4746 4.9528-0.10067 6.9521-2.1075 2.9318-1.0092 10.702-7.5127 11.657-3.8124-2.8958 3.2777-10.65 4.434-11.307 8.4935 3.3616-1.226 8.0664-4.6866 8.5555 0.67625 3.6191-1.5018 9.0379-7.6256 12.214-5.568-1.6124 3.5006-12.313 7.5663-9.3895 10.149 4.4397-2.2598 9.8996-8.291 12.008-3.4158 5.4669 0.76146-5.4032 6.7756-7.0139 9.1743-3.92 3.1472-2.6581 3.958 0.77648 0.73308 6.7419-5.8288 14.25-11.275 23.248-12.774 5.2167-2.9246-7.0168-2.1928-9.3474-3.3779-7.2506-1.5756-10.147-10.484-15.901-12.821-7.1411-0.9499-14.98 1.8909-21.642 0.0455-3.222-4.5545 8.7833-2.6113 11.94-3.748 7.7044-0.64823 15.569-1.1603 23.075 1.0262 6.229-0.8565 13.692 4.6935 18.854 1.9687-5.2555-5.3732-7.644-17.574 2.0121-19.797 7.2962-4.6314 15.621-3.2075 19.561 4.4122 7.0892 5.6342-0.84902 13.401 1.4581 21.074-0.38533 7.1196 8.3992 4.9312 7.3608-1.3202 7.7527-3.2417 5.1857-12.388 10.161-17.794 5.271-7.467 15.061-9.9954 23.759-9.711 3.7743 5.1847 11.028 6.819 16.734 8.905-2.5303 5.0652 9.297 8.1934 1.3626 10.813-6.8827 0.82061-14.894 1.5708-20.5 5.4356 6.2088 1.049 13.289-2.9638 20.026-2.3355 4.6847-1.5742 17.236 2.7765 7.7353 6.674-3.8778 2.2804-15.97 4.2766-13.493 9.1098 8.0176 3.0391 17.442 4.0578 23.783 10.314 0.77636 7.5478-11.719 1.8425-15.733-0.0508-7.3915-2.9341-15.279-4.0189-22.798-6.5509-12.404-1.1071-24.758-3.945-37.302-2.8302-7.0438-0.12491-13.862 1.5243-20.719 2.369-6.4662 1.6295-17.887-0.67381-20.073 7.2949-2.8671 12.477-9.7231 23.487-14.412 35.251 2.5662 1.7287 5.7098-4.7106 9.1508-3.7833 10.956 0.31123 21.838 1.3963 32.656 3.1442 7.7113 0.5375 15.18 1.4886 22.676 3.3099 7.5275 0.57102 13.953 4.9626 21.368 5.7566 6.395 2.0846 12.724 4.6021 19.166 6.3298 12.046 3.2105 24.081 7.3077 34.736 13.885 3.6948 0.73814 4.8013 3.1639 4.4046 6.686 0.87144 13.215 3.5264 26.464 1.75 39.716-2.3793 3.0989-5.5965-3.5903-9.3316 0.40014-6.5846 0.29124-12.704 6.8502-18.858 4.8514 0.83115-2.9034 8.64-8.4365 0.0489-7.269-8.7464-1.6174-11.83 6.2396-13.092 12.937-5.8837-1.4805-16.789-0.70983-17.996-8.5376-4.2565-6.2887-9.5903-11.476-17.124-13.921-7.298-1.9736-3.5081-10.45-10.944-12.629-5.9732-3.7342 0.61785-4.4336 3.6886-3.7181-2.7414-1.8522-5.9929-4.8746-0.2965-2.7638 4.9362 0.93179 10.398 7.3913 14.829 5.6728-5.453-3.9789-13.286-6.6728-17.275-11.463 6.9844 0.46711 12.629 6.3606 19.122 8.9298 2.1396 8.0618 10.556-2.2712 16.452 0.56398 4.5642 0.78539 8.4805-2.5702 1.6252-2.501-4.5007 2.6233-12.627-2.8229-4.7031-4.2458-3.2442-3.3656-11.649-1.3675-16.314-4.8534-1.9904-1.8916-11.507-5.0117-9.1778-6.3586 5.0228-0.20936 12.304 6.4031 15.356 4.0856-6.6214-3.1056-13.413-6.4007-20.99-6.1534-7.6736-1.2884-14.66 4.2244-22.304 1.5376-5.5832-6.1926-13.715-2.7-19.998-7.4276-5.0542-3.7531-11.125-5.2499-17.341-4.7882-3.6648-0.96667-4.8604 0.682-4.287 4.219 1.5458 6.2405-5.3285-2.6825-3.8506 4.0274 1.1381 4.9351-4.4323 6.2544-3.0382 11.331-4.1416 2.1413-8.3703 11.909-3.4134 14.446 1.3627-2.8927 4.4619-4.3601 4.5066-7.4564 3.805 3.9768 3.8862 13.213-1.7031 6.9 0.65646 1.7355 3.4261 12.177 0.91599 9.3995-5.4596-6.2175-1.3671 9.5311 3.7663 4.4706 7.5999-2.0103 16.096-7.3876 23.718-2.533 5.9411 3.1471 15.511 2.6853 18.46 9.5412-1.895 0.94676-7.5097-3.8697-6.7236 1.585-5.4856 0.68788 2.8616 2.0614 1.7168 5.2427 5.6049 3.1938 20.087 0.069 15.984 11.285-2.3236 3.5781-15.669-1.6383-12.513 4.2323 3.7285 1.3537 13.795-1.398 7.7506 5.0442-4.5004 6.6204-16.369-2.5721-15.701 8.7721-4.6911 5.2953-10.301-1.2607-3.3502-4.4516 5.7873-5.7418-4.2049-13.267-9.2628-7.9292-8.475 0.91653-1.8609 4.8038-1.0925 7.1942-7.7717 4.1046 8.7775 5.0292 0.64196 7.9188-6.3906 3.038-7.9925-13.361-10.33-3.7292-7.9175-2.8021-0.31553-16.265-10.097-16.656-4.0956-1.989-7.3809-6.9581-4.5328-10.568-4.5375-4.4333-2.9322 4.3854-6.1508 6.6593-3.2556 7.8609-6.4834 15.779-11.184 22.833-1.7265 2.2016-5.2946 4.9238-0.76776 5.4021-1.8399 7.3761-12.53 9.165-13.153 16.365 4.1921 2.5127 7.8935 5.4562 12.883 1.7611 7.396-3.2988 14.883-1.025 22.204 1.067 3.8527-0.36549 8.2358 0.26675 11.019 0.62935 1.7829-4.0614-5.9982-4.9038-7.6378-8.6359-3.0542-2.5873-18.321 1.5609-9.3143-4.509 5.0127-1.872 10.654-2.0789 14.749-3.3552 2.9293 3.1942 4.1147 9.2381 3.787 12.046 5.484-5.6646 1.7515 3.3294 1.9678 5.3099 4.1435-8.1172 10.118-0.82392 6.327 5.0823 0.0699 0.67713 5.5531-7.1778 4.3337-0.86127-1.2183 4.8809 3.5785-2.182 4.6346 2.4313 7.8956-1.2275 3.5598 13.483 11.611 8.1542 5.0969-2.368 11.94-4.0203 12.609-11.434 4.3089-0.37381 4.6738 4.8959 6.8433 7.93 7.6697 2.4377-0.99044 11.613-3.9553 16.021-2.3202 7.8673-0.38147 17.668-6.7185 24.032-8.8844 4.712-1.7124-8.1564-1.8892-12.352-5.4014 0.74569-1.1006-13.627-7.0373-11.945-2.4222 5.7566 4.9896 7.6132 2.0461 13.795 2.2791 3.0276 2.4681 12.945-2.625 11.559-0.80852-4.2996 3.9029-8.2821-2.3336-8.8648-3.1189-3.7732-3.2922-14.749-9.9579-7.3117-5.349 6.8804-14.53 4.2695-20.605 8.848-5.7926 4.945-0.48483-10.161-5.3013-2.2831-0.23023 2.0572-3.2161 9.5678 1.0698 8.5445 5.5178 0.16047 11.443-1.3682 16.597 1.0547 2.9745-0.0554 5.2697-8.9268 4.8566-1.3668-0.35756 5.0838-4.5498 12.547-5.6767 5.7133-4.693 3.4152-9.8099 6.7738-13.6 11.599-0.96776 1.8604-5.277 3.9254-4.132 5.6564 3.8376 2.823 2.8497 8.4831 8.8627 7.6166 3.3979 5.5167 9.2849 9.3425 16.369 8.9077 8.0895 0.64958 15.019-3.7045 21.829-7.338 8.8609-2.1533 16.209-7.1243 23.962-11.617 6.8206-3.1541 12.442-7.9023 19.683-10.043 7.4284-2.6487 12.647-8.0869 19.104-11.898 6.5562-4.4399-0.14867-12.504 7.1888-17.157 3.0315-2.6803 12.736-12.132 3.6918-11.723-6.5075 3.7898-3.5416-4.6616-0.1028-6.2796-2.3868-4.5654-9.3392-7.0446-4.9146-13.448-1.4152-4.461 8.6933-10.948 6.0265-3.5878-6.4807 5.9204 0.7529 15.015 7.1075 8.2026 4.8998-4.1044 10.063-8.9285 16.063-11.496 7.8795 3.9672-9.7165 11.031-0.99455 16.447 8.1531 0.48724 2.9943 11.308-2.9208 12.301-8.0525 3.5127-9.1092 12.324-11.794 19.603 1.2553 5.7096 10.379-12.779 10.155-3.9768-3.2096 2.2309-4.3053 9.8638 0.65395 4.1931 1.337-4.5114 9.2709-5.8316 6.0839 0.17572-10.136 13.196-25.503 20.627-38.366 30.707-7.5202 3.3752-14.084 8.3014-20.103 13.901-6.9027 5.2529-14.213 12.78-12.417 22.267-1.1231 6.659 9.9819 12.812 5.1204 17.882-1.9347-2.8892-9.5354-14.945-8.144-4.9178 1.4911 6.335 8.8148 11.37 12.401 3.677 8.581-8.6679 16.275-18.103 24.762-26.861 7.3357-10.215 14.914-20.345 22.905-30.088 3.8922-6.5702 10.162-11.739 14.62-17.603 4.3732 6.167-5.5818 12.569-8.8285 17.871-5.6023 6.3989-10.192 13.536-15.926 19.84-9.1676 12.63-18.735 25.045-28.589 37.091 5.1624-2.4574 10.452-9.9734 14.81-15.087 6.8585-6.8614 12.04-15.138 19.068-21.861 2.536-1.6336 7.2022-11.375 9.5298-7.5084-4.396 6.0443-10.029 11.202-14.366 17.359-7.4266 8.8414-15.131 17.421-22.879 25.981-4.6847 6.2707-9.1245 12.584-13.719 18.873-3.0164 6.8438 7.0953-2.4819 8.4113-4.56 7.0375-7.1188 11.772-16.023 17.868-23.863 4.158-1.3367-3.6784 7.4571-4.7109 9.6158-5.0753 7.6931-9.8824 15.751-17.315 21.468-7.3816 6.8452 5.2233 1.8987 7.1119-1.3764 6.1905-5.749 10.694-12.993 15.73-19.564 2.9944-2.3151 6.8747-13.228 9.2216-10.252-3.6346 6.9775-8.5788 13.232-12.995 19.634-0.26963 2.9331-9.6814 9.1942-6.1712 9.2896 13.135-11.41 24.452-24.871 37.991-35.841 8.1104-4.3985 5.7429 7.4385 0.50572 9.4572 0.62271 2.5282 4.9542 7.0981-0.38257 9.95-7.442 8.0035-15.849 15.135-24.641 21.532-6.8571 5.4365-14.853 10.882-24.062 9.7849-10.745-2.1506-9.141 9.3879-11.321 16.277-2.6546 17.107-0.40038 34.905-5.9244 51.567-2.5273 10.731-9.2848 20.566-8.0418 32.003 0.52912 8.0675 0.26485 16.422 2.4327 24.227 6.2313 6.1911 14.5 9.694 21.621 14.67 7.829 3.7733 16.245 6.0408 24.153 9.5824 3.1475 0.60092 8.8385 6.3898 1.9552 4.7443-10.246-0.66918-19.276-5.8983-28.467-9.9046-9.1607-6.5033-19.401-11.395-27.95-18.799-6.6206-4.9804-11.811-11.404-16.628-18.038-5.4602-5.7657-12.804-9.5792-17.875-15.874-6.8001 1.9036-14.051 5.7084-20.077 10.171-12.509 9.2245-19.477 23.864-24.098 38.306-4.3368 8.8937-3.6712 19.147-6.4057 28.534-1.5598 8.0147 2.1272 15.849 8.9037 20.331 6.0898 4.3007 12.599 8.0581 18.36 12.88 11.145 8.0936 18.842 19.842 28.946 29.009 2.5795-3.13 2.3785-10.114 5.4047-14.132 0.47474-7.9204 3.7359-14.766 6.1478-22.138 5.3952-12.512 7.7682-27.001 17.911-36.95 4.8331-5.3776 9.4196-10.82 15.816-14.429 8.0152-3.7054-1.5722 7.5216-3.2805 10.1-5.4173 9.4489-17.571 14.018-20.081 25.384-2.724 7.5005-4.2352 15.247-6.3644 23.082-1.0933 7.6436-5.4461 14.152-7.7398 21.357 0.65064 5.4915 1.1606 12.172-5.7745 13.087-4.8781 6.6079 6.4046 11.469 9.1886 16.751 10.095 11.363 19.643 23.186 29.592 34.667 5.215 5.0044 10.176 10.51 16.433 14.252 14.629 7.6479 31.09 11.066 45.519 19.144 6.8098 4.1688 15.872 6.5315 19.662 14.132-0.4061 6.3944-8.5502-2.1109-12.609-1.7334-9.3016-3.025-17.666-8.9746-27.482-10.2-10.997-5.7629-23.205-9.8546-32.301-18.701-3.8873-4.7224-7.5734-3.6529-7.712 2.6288-2.666 2.3742-4.2527 3.673-0.73682 6.887-0.074 10.626-5.174-5.4138-8.4278-3.4764-2.727 4.3263 6.036 16.679-2.3621 12.614-3.3782-6.6289-1.3722-14.736-1.4222-21.955-0.4824-4.8293 3.7579-17.212-1.3831-17.586-2.2243 8.558-0.89767 17.792-3.6248 26.206-6.3638 2.6957 0.95569 12.047-0.46943 17.667 0.32552 8.2261 1.0463 16.456 3.5983 24.327 2.425 11.33 0.8888 23.139 3.5594 34.409 4.7583 3.5318-1.0398 11.762-2.7486 3.6256-3.1094-6.575-2.0483-13.923-5.1066-20.459-1.1558-7.1703-2.7638-14.257-2.9687-21.575-1.1437-9.4946-1.3574-19.302-4.2323-28.459-1.8509 6.8246-4.1541-5.8321-3.8696-9.4278-0.62113-11.721 1.4393-23.304 3.6919-34.74 2.7704-5.5846-6.5565-8.8368-4.2024-1.2246 0.54838 8.5379-2.1704 16.757-2.4258 25.276 0.32915 3.0467-1.5906 15.076-4.1766 7.4484 0.3442-3.7615-1.2222-12.926-2.1781-4.3118-5.4819 3.6886-2.61-9.0822-2.5798-12.19 1.161-10.068 2.8884-20.157 3.1009-30.284-0.78448-7.9546-3.9897-2.595-3.5137 2.1561-1.4718 11.481-1.6249 23.115-2.8556 34.585-5.0254 4.5623-2.7187-7.9834-2.7944-10.99 1.406-4.6314-3.4026-9.2826-3.4792-2.0929 0.34692 3.6342-2.093 13.972-3.6433 4.9428-1.2615-8.0574 1.8334-15.962 1.6487-24.06 0.59818-8.167 1.485-16.445 2.3674-24.486-4.5216-8.6773-3.3454 6.0481-3.9389 9.2037-0.61814 10.745-3.0239 21.5-3.3988 32.128-6.3132-0.28142-1.268-12.971-1.9196-17.75 0.73025-10.79 3.09-21.374 3.673-32.189 2.1065-4.5334-2.8075-8.7068-2.7274-1.7925-3.3804 15.029-3.9652 30.452-4.9591 45.772-2.5841 8.4523-3.8277-5.6337-3.0002-8.5326 0.12371-12.533 2.4197-24.925 4.4274-37.258 2.4165-3.099 1.4502-15.74-2.4394-7.9606-2.8398 7.3506-2.4512 15.444-3.9741 23.126-0.33232 8.7418-2.3344 17.284-2.8822 26.019-1.6502 9.8463-2.2691-2.8171-1.6134-6.1526 0.38778-14.65 2.3157-29.253 5.0502-43.628 3.5822-4.119-2.4839-11-3.2707-3.0368-3.5048 18.47-6.4023 37.546-3.5505 56.305 2.2535 11.244 2.8835 22.891 6.4132 33.823 1.8405 21.807-0.74484 44.296 6.0218 65.451-3.0171 7.6114 4.0767 15.058 3.2428 22.792-0.77751 1.4428-2.61 1.7127-4.0594 1.456zm37.627-86.205c-2.138 1.0845 0.77243 9.054 0.25096 1.9625l-0.0156-0.90521-0.23547-1.0573h8e-5zm18.946-6.5442c0.20487-3.9455 2.4532-12.112-0.16458-13.811-1.03 4.256-2.612 15.458-0.38125 15.75l0.30366-0.90885 0.2422-1.0304h-3e-5zm-75.073-3.5545c-2.8092-3.0702-2.9268 2.9844 0 0zm62.915-4.0052c-0.52847-6.5322 5.7465-16.961 0.0453-21.112-2.3167 6.1782-1.0712 13.801-1.4923 20.572-0.14102 4.104 0.58738 6.9258 1.447 0.53974zm-17.056-1.5258c0.36008-9.2127 4.1991-18.511 2.0185-27.677-2.8233 3.9316-2.0853 12.843-3.1016 18.709 0.18825 1.2776-1.8567 12.48 1.083 8.9679zm-10.845-18.734c1.4835-9.2696 2.5551-18.776 2.2762-28.157-1.9904-7.3775-4.7707-1.3931-3.5195 3.1372 0.26589 8.4446-2.0125 16.785-1.467 25.217 0.33781 1.7218 2.3636 1.1621 2.7102-0.19754zm-30.419-40.773c1.1004-8.7212 3.4862-17.379 3.705-26.2-3.9288-1.5142-4.5388 10.363-4.838 14.404 0.23694 3.7996-1.442 12.781 0.86206 13.548l0.19456-0.78838 0.0764-0.96271zm-1.5787-23.538c0.83924-2.7268 0.20614-11.446-1.5753-4.0857-2.402 5.3432 3e-3 17.566 1.4464 5.2713l0.12888-1.1856zm-4.1447-7.6714c2.6481-5.693-7.5402-9.359-3.4141-1.4826 1.1682 3.0787 2.4494 9.4085 3.4141 1.4826zm-26.665-70.151c-1.2291-6.2512-4.8837 3.5919 0 0zm-6.6826-9.6417c-5.4668-5.2471-3.064 4.7924 0 0zm103.15-20.408c-1.4151-9.9992-0.0656-20.182 2.349-29.852 9.8632-15.266 10.509-34.15 10.345-51.784-1.4982-5.7076 2.5258-13.004 0.0275-16.927-5.861 6.7017-12.428 12.939-19.275 18.627-8.3005-0.85897 3.7367-13.737-6.7923-14.748-7.9079 0.1688-13.731-9.8931-21.044-7.2115-1.6778 3.4408-9.9617 11.087-7.3028 2.1898 2.1323-3.169 3.2565-9.764-2.2872-4.932-7.7532 3.5889-12.038 11.794-14.017 19.728-3.1099 7.6439-2.2324 16.061-4.068 23.976-2.7292 5.559-7.9706 12.459-8.6892 17.051 1.3079 3.2789 5.3268 12.702 6.571 4.0543 1.1296-7.4476 5.2535-14.16 4.5904-22.296 1.4713-10.353 4.3485-20.525 7.9452-30.316 5.3932-7.0328 7.6995 1.9616 4.642 6.5519-3.7887 8.5178-5.7897 17.731-6.9794 26.96 3.3428 3.3922 6.3978-8.6333 8.635-11.302 4.5926-8.5716 4.3067 7.0636 1.5404 10.052-3.8844 10.361-7.9193 20.682-13.266 30.38 3.2213 4.6439 6.7815 10.04 12.431 11.629 7.3692-3.2446 16.061-3.5184 20.774 4.2379 7.0222 9.4229 16.449 16.792 23.827 25.941 1.7636-2.802 0.0235-8.3752 0.0446-12.009zm-57.246-34.903c-1.558-3.8363-0.75253 5.0294 0 0zm-4.0605-57.218c-1.2557 0.80049 0.74755 3.8318 0 0zm82.422-18.799c-3.1551-6.1667-1.2721-16.827-8.7978-19.032-0.61697 6.329 3.3655 13.45 6.0921 19.462 2.0164 3.2465 3.6051 5.3098 2.7056-0.42914zm9.7657 1.0487c5.7688-3.2472-4.4113-1.3843-4.1102 1.632 1.3078 0.89642 3.0533-0.92966 4.1102-1.632zm-0.44566-20.527c3.146-5.5351-0.41449-2.5022-2.8279 0.98057-3.1719 3.1055-5.3778 10.899-0.29703 4.1126 1.2181-1.578 2.3097-3.2702 3.1249-5.0932zm42.485-5.5734c-2.7604-0.31468 1.2131 3.9113 0 0zm-65.308-33.774c-2.0541-3.0745-1.7979 2.9703 0 0zm-24.413-1.9523c-4.968-4.8787-1.6341 5.5651 0 0zm34.471-3.4844c4.1994-1.3759 6.7542-7.554 0.38812-3.9232-2.6428 1.5801-12.428 3.663-10.649 5.9315 3.4876-0.01 7.0449-0.64144 10.261-2.0083zm38.005-25.079c-2.0542-3.0745-1.7979 2.9703 0 0zm3.3243-22.278c1.8951-5.6637-7.2117 3.3075-0.97437 1.0317l0.97435-1.0317h2e-5zm-109.75-6.8623c6.0978-1.307 13.698 1.5564 18.523-3.539-5.6328-1.9829-13.098 2.2448-19.549 1.3916-3.2204-1.1278-10.646 0.67901-4.3868 3.4319 1.8703-0.0324 3.5758-0.99343 5.4126-1.2845zm44.903-10.868c2.559-3.0295 1.2439-6.3832-1.1478-1.4838-2.4656 2.8869-2.6147 9.27 0.3312 3.0106l0.81654-1.5268h3e-5zm-28.119-0.46608c-0.45391-3.3187-8.6281-5.5779-0.66542-5.5008-6.3327-3.4939-10.181-12.149-16.438-14.697-4.3998 8.3093-11.244-4.6277-15.052 2.4891 1.5631 3.9779-4.973 4.5863-1.0541 8.593 2.4736 3.7156-1.2113 8.4056-0.7542 10.61 7.3473-2.4429 14.921-3.6351 22.618-1.3067 2.984-0.51503 10.84 4.3235 11.346-0.18739zm25.219-2.8405c-3.5863 0.52825-0.99131 5.1636 0 0zm-5.5302 0.12791c3.9234-0.77516 6.5795-11.611 2.2488-3.6334-3.2532 3.4619-1.9437-5.1952-5.5158 0.25674-3.6894 3.5205-0.13618 6.0259 3.267 3.3767zm-16.255-0.58593c-3.2332-5.1951-2.9568 1.8271 0 0zm97.27-4.2894c-0.44112-2.5404-4.2831 1.8004-0.66916 0.5388l0.66916-0.5388zm-73.922-5.1337c-1.5665 0.48535 1.0934 3.637 0 0zm-13.085-48.583c-8.3885-2.507 3.7385 4.3288 0 0zm-29.798-0.89295c1.2551-2.7409-6.9823-3.2596-0.55093-5.1892 5.2906-0.99754-6.7688-5.3469-3.5634 1.3099-0.42337 2.8622 0.77869 7.5349 4.1143 3.8792zm20.299-6.8149c-1.0271-5.1748-15.796-9.5611-15.293-2.8337 3.8812 0.0265 13.674 6.8724 15.293 2.8337zm6.9265-1.0041c-6.4846 0.42853 3.9668 2.49 0 3e-5v-3e-5zm12.527-1.6549c-2.0842-3.5563-7.9489 2.0207-0.98504 0.5388l0.98504-0.5388zm-50.422-10.708c-1.8767-3.0539-8.7502-0.67937-2.2366-0.36086 0.79645 0.86979 4.9109 3.3165 2.2366 0.36086zm-12.818-10.334c-1.7079-5.3362-2.2346 4.5362 0-1e-4v1e-4zm30.053-1.127c-1.6677-1.8817-2.0972 2.9332 0 0zm66.906-9.5505c-1.0965-3.8442-10.704-2.9018-3.9982 0.70873 1.1852 0.37613 3.3233 0.71898 3.9982-0.70873zm7.8588-1.5116c-1.9054-1.5368-1.6343 2.7423 0 0zm-103.75-2.6251c-2.8231-2.9064-1.7937 2.5394 0 0zm115.96-17.973c-1.8894-1.5281-1.6428 2.747 0 0zm-22.124-5.6271c-1.8702-3.7109 1.783-9.2004-4.6298-5.6573-1.2742 3.9307-12.46-0.29798-7.9642 4.5042 4.1215 0.18041 8.7046 3.1829 12.594 1.153zm-34.342-1.3847c-0.5345-3.3655-10.608-6.244-9.5246-5.2041 2.8178 1.7221 6.2556 5.9505 9.5246 5.2041zm17.558-2.4794c-2.0541-3.0745-1.7979 2.9703 0 0zm-4.5774-5.0023c-5.4639-4.099-11.915-7.5898-18.091-10.516-4.1852-6.5534-12.068-4.2338-17.575-2.0009-6.6314-1.0658-0.26418 2.7257 2.2462 4.5515 3.6078 4.6861 4.4653-3.5379 7.3005 1.9713 1.7691 3.2403 11.247 7.4406 5.5289 0.94077 3.836-0.37755 9.7772 7.3384 15.958 5.7036 1.1873-0.3972 4.4113 1.5869 4.6321-0.65007zm-24.961-1.1251c-3.6699-6.4254-3.7953 1.587 0.25686 1.0484l-0.25686-1.0484zm38.228-2.0738c-1.9039-7.0308-3.4739 2.4715 0.27911 1.425l-0.27911-1.425zm-60.567-2.8609c-1.9304-3.9726-1.5546 3.8297 0 0zm58.3-2.6559c-2.6834-2.3412-8.489-0.93079-2.0378 0.30321 0.3934-0.0811 3.3239 1.0132 2.0378-0.30321zm-18.776-2.4918c-0.11207-2.3413-11.041-4.1272-8.2264-1.7543 1.496 1.6194 7.1414 5.177 8.2264 1.7543zm10.683 0.47994c-6.2032-2.5656 1.8426 4.08 0 0zm-78.434-19.027c-1.9055-1.5367-1.6343 2.7423 0 0zm-0.38145-6.4396c3.4639-4.3964-6.2208 2.6291-1.0413 0.98138l1.0413-0.98138zm-2.2887-4.5774c2.5233-2.7514 7.8929-7.966 0.79668-3.7607-3.5374 1.0194-10.275 11.82-3.0792 6.4123 0.80456-0.8455 1.5519-1.7423 2.2825-2.6515zm-10.299 0.33641c-1.8109-2.7232-0.56606 3.459 0 0zm39.289-7.5058c-2.1529-0.42672-7.5406 6.389-2.2216 1.9874l1.0316-0.90209 1.1901-1.0854zm-30.609 0.54064c2.5779-1.4288 5.0804-6.1925 0.41991-2.5847-3.3358 1.1751-7.5571 8.3585-1.5673 3.5609l1.1474-0.9762zm10.773-2.526c-0.23498-2.6972-3.3725 2.7254 0 0zm8.3919 0c-1.4281-2.826-2.9215 2.5774 0 0zm14.515-1.3785c-2.4747 0.0363-2.2413 2.8783 0 0zm-6.5337-4.718c6.1931-7.2395-11.559 7.5494-2.2082 1.8202l1.042-0.83184 1.1662-0.98835zm-18.662 1.5191c2.7774-5.0243-7.2487 5.3418 0 0zm8.6073 0.118c-2.1391-2.9138-4.0592 4.2747 0 0zm-4.0764-4.0077c-4.2505-0.98957-2.2539 5.2675 0 0zm-15.768-0.54504c-2.1278-2.0117-2.4364 3.6059 0 0zm121.09-7.1544c3.4194-1.1892 14.467-2.0275 4.8322-2.3842-7.2301 1.0342-14.855-0.0631-19.456-5.217-5.1271 2.8125-15.52-4.6898-14.378 4.9658 6.8086 2.3769 15.053 1.2669 22.328 2.8269 2.3035 0.80678 4.336 0.74094 6.6734-0.19153zm-52.259-0.57922c-2.2507-2.6939-7.5391-12.123-9.2902-9.4458 3.761 1.9386 4.3821 12.127 9.2902 9.4458zm5.9125-0.51877c5.7166-5.2881-7.1167-2.6202-2.2565 0.4896l0.97481-0.17228 1.2817-0.31732zm-20.631-3.0336c-5.012-4.0036-12.558-7.7597-19.036-6.5057 1.615 5.9681 12.443 8.9994 18.646 6.8379l0.38976-0.33213v-7e-5zm5.1824-0.30005c-2.3037-2.5464-0.20893 2.6584 0 0zm79.261-2.7011c3.7278 0.40992 11.301-3.9729 3.3861-3.5271-7.5914-0.037-14.776 2.7846-22.281 3.4339 2.1223 4.3345 13.861 0.17358 18.895 0.0932zm-22.997-0.0928c-3.0248-0.6463-2.5607 1.2013 0 0zm-9.0089-5.5809c5.5603-3.0001-9.49-10.416-7.9045-1.4053-1.4422 5.3927 5.5329 1.6779 7.9045 1.4053zm16.447-3.8316c0.47757-2.8725-4.7255 2.3582 0 0zm-130.66-1.2942c-2.8113-8.537-3.912 4.274 0-3e-5v3e-5zm112.97-8.5758c-0.59454-2.658-3.629 3.1729-0.52986 0.80521l0.52986-0.80521zm-35.332-1.9692c5.3446-9.0505-16.829 0.0765-8.4834-0.2203 3.8196-2.0153 5.5267-0.0855 7.1483 1.9928l0.94298-0.62816 0.39209-1.1443h-4e-5zm40.815-1.1301c1.8551-2.9582-5.5019 2.3639 0 0zm-150.62 682.88c4.6474-5.2586 13.226-7.5484 18.676-12.795 5.8464 0.0576-2.858 9.1733-6.2596 10.022-3.7807 1.5374-8.3467 3.9105-12.416 2.7724zm-11.428-0.73854c2.1033-3.7683 10.694-1.3996 2.7558 0.33276-0.87536 0.0441-2.0334 0.3481-2.7558-0.33276zm-10.369-4.9864c5.1893-2.8682 12.364-4.0904 16.004-9.7564 5.1456-4.4614 11.059-8.4801 16.238-13.304 3.1237-0.69011 13.14-7.648 12.756-2.8915-6.1282 5.9246-13.044 11.161-20.723 14.849-7.133 4.0894-13.233 10.808-21.625 12.119-0.82771-0.0283-2.4744 0.16827-2.6499-1.0159zm214.2-1.0385c-5.9478-5.3801-9.8326-12.293-14.013-18.948-8.5672-16.049-11.155-34.379-18.811-50.813-5.141-12.025-10.47-24.326-10.776-37.629-0.70077-8.7012-0.40869-18.295 4.5277-25.803 8.5879-3.9901-0.5118 8.1941 1.0524 12.11-0.43895 15.507 1.1465 31.36 7.4969 45.67 1.688 8.2032 8.6069 14.517 10.113 22.483 0.14676 5.3448 0.9594 9.0988 5.622 9.1636 3.6407 8.1256 7.6577 16.185 10.347 24.756 2.404 7.1404 5.8352 13.902 10.31 19.912-0.54036 2.7006-4.8144 0.41452-5.8701-0.90302zm-13.567-31.279c-0.19381-3.575-4.3927-10.435-2.5166-2.843 0.0685 0.73353 1.8419 5.0215 2.5166 2.843zm-182.32 31.493c5.0502-5.4468 11.717-9.3284 18.136-12.983 7.1337-1.6726 10.15-10.063 15.828-14.261 4.4315-3.3396 8.5311-7.7648 13.576-8.772 4.7101 5.6033-1.0384 14.994-4.0643 20.73-3.8536 7.1103-12.147 8.5521-19.078 5.1526-2.6294-1.1682-4.9745-1.3722-6.4081 1.5164-4.689 4.8247-11.15 8.808-17.804 9.4288l-0.18775-0.81201h2e-3zm-28.226-3.0732c0.0586-3.1172 11.046-4.1572 12.846-3.332-3.3712 2.1525-8.9946 4.9803-12.846 3.332zm13.731-5.6696c6.6057-8.7188 16.395-14.23 25.585-19.802 3.9659-3.752 10.523-1.9168 4.0581 2.253-7.0349 5.7967-15.682 9.1318-23.108 14.395-1.8499 0.67792-4.9009 3.9383-6.5348 3.1538zm-25.366-0.48803c2.0326-3.6729 12.83-2.0768 17.361-6.301 8.7726-6.9332 17.883-13.918 28.325-18.135 7.4014 1.378-5.0419 5.9016-7.8133 7.4735-9.9841 3.9182-16.598 13.507-27.166 16.153-3.4501 0.8521-7.1862 1.4468-10.707 0.81031zm262.36-1.4053c-8.4121-9.6326-17.937-18.37-24.726-29.337-4.4358-4.5224 2.3921 6.3538 2.8683 8.0017 2.8728 5.5496 9.1811 10.311 12.138 15.752-6.246-1.9277-10.132-9.1069-14.39-13.938-5.6271-6.764-8.7788-15.366-12.236-23.425-1.0898-4.2206-7.0776-15.078-1.0521-15.502 11.444 12.44 14.462 30.624 26.935 42.381 4.2228 5.8667 13.025 10.168 13.238 17.78-1.132 0.67525-2.2267-0.99515-2.7763-1.7115zm-255.62-7.9782c1.276-3.9959 12.254-6.556 4.6248-1.4351-1.2835 0.35871-3.4015 3.1504-4.6248 1.4351zm-25.428-4.4623c-4.1435-2.5854 8.3216-2.6849 10.281-4.2522 5.3989-0.0573 11.187-6.7071 15.467-4.8012-5.444 6.1639-14.015 8.8148-22.112 8.9943-1.1954 0.22931-2.4342 0.30495-3.6363 0.0592zm35.284-4.0296c5.8253-3.7834 11.654-8.0154 18.358-10.207 6.8642 1.3186-6.35 5.4558-8.5733 6.9433-2.0172 0.19539-12.144 8.1638-9.7842 3.2633zm56.516-5.2409c0.14099-7.1222 1.44-14.353 1.9953-21.383-3.3687-7.8808-6.8397-15.915-11.336-23.219 1.677-3.8426 6.9575-1.9513 4.174 2.0191 4.4116 5.3611 8.1177 11.277 11.299 17.366 3.2269 6.7081 4.7833 15.314-0.59013 21.403-1.3546 1.3447-3.3921 4.3443-5.5424 3.8136zm5.4096-16.778c-4.0029 1.0232 1.0402 9.1591 0.32767 1.8881l1.4e-4 -0.90844-0.32786-0.97967h5e-5zm-106.36 15.357c-10.742-2.1812 16.097-3.8772 3.8646 0.42532-1.2826-0.19017-2.5744-0.30339-3.8646-0.42532zm-10.108-0.96721c3.525-3.0855 4.1022 2.9863 0 0zm92.311-1.5097c2.3181-11.319 9.249-23.083 4.0672-34.695-4.0342-8.6849 5.0458-0.13965 5.5566 3.6723 4.8909 9.1516-1.3605 19.209-5.3724 27.43-0.61704 0.95297-3.9764 8.0439-4.2513 3.5927zm-97.461-5.5446c-7.9718-3.5385 16.691-1.3174 4.3806 0.82901-1.4921-0.0498-2.9624-0.37821-4.3806-0.82901zm11.253-0.90018c3.2608-4.8051 3.8246 4.1716 0 0zm-12.969-7.119c-6.865-2.3424 6.3737-1.7947 8.5822-2.3395 2.1645 3.8729-6.6381 2.645-8.5822 2.3395zm-12.016-1.4526c-3.2591-4.7801 12.844 1.4354 2.7451 0.37623l-1.1752-0.0941-1.5699-0.28217zm-18.049-4.6999c-4.6944-5.8734-7.648-13.004-13.412-18.105-4.2166-6.2004-10.318-10.47-14.013-17.084-3.2034-6.0014-8.53-10.647-11.208-16.983-4.7507-5.3643-8.3852-11.64-11.779-17.692-4.9895-4.6082-7.0051-13.095-4.5695-19.436 5.8888-9.4926 15.747-15.582 22.967-23.839-3.3605-5.6076-11.549-8.1862-17.313-11.794-9.191-4.8346-16.124-12.859-24.759-18.418-7.8512-2.5506-14.983-7.8655-18.658-15.51-3.8394-5.2944-11.467-8.1126-15.131-13.459-10.04-0.18003-8.9529-10.912-14.214-16.509-2.0336-6.8537-4.7402-13.707-8.5654-19.693-3.9455-7.1481-9.7917-12.899-16.495-17.411-5.2462-4.1087-9.1071-10.908-16.642-12.348-7.1185-3.1893-9.075-11.119-10.686-17.949-2.3431-6.794-7.4435-11.862-6.6343-19.935-2.3797-6.8396 0.14397-16.279-4.1593-21.494-5.2703-5.3983-10.92-11.02-14.272-17.796-0.56816-7.3-2.6956-16.483 3.4497-22.045 3.4108-6.7058 7.2077-13.176 12.285-18.728 7.2292-4.0235 10.71-11.605 17.28-16.446 5.147-5.4576 12.042-8.6427 18.072-12.841 6.9249-2.0545 13.879-4.0229 20.889-5.6187 10.749-4.5568 22.685-2.8147 33.829-5.2613 6.6695-2.7493 13.569-6.1536 21.006-4.6925 8.0755 2.059 16.257 0.29106 24.445 1.1308 16.124 2.441 32.285 4.8483 48.349 7.5502 7.512 1.7297 15.373 2.2209 22.946 3.8966 11.565 3.4703 23.504 5.5946 35.239 8.3117 7.0466 3.1966 15.271 2.6728 22.384 5.9255 12.679 3.6718 26.213 5.9672 37.26 13.632 10.617 3.0625 16.244 13.846 21.143 22.896 5.6109 11.224 6.7665 24.143 7.2248 36.515-0.82332 8.1606-5.3225 15.401-8.4918 22.826-5.2277 5.7204-3.362 13.939-4.3148 21.019-1.6775 8.5095-0.0235 16.655-1.9752 25.04-0.78312 3.9789 11.96 9.7991 6.3449 11.96-5.9916-4.0122-11.757-8.5204-17.736-12.565 8.1395 0.74355 5.9758-8.5837 6.7754-14.036 0.7132-9.8049 0.51124-19.637 0.50378-29.45 1.0802-2.7019 4.6954-6.5957-0.85878-6.194-3.0396-2.739 1.0605-7.6729-4.0261-3.0316-6.9758 4.0564-14.528-0.16961-21.346 1.633-4.2624-3.0039-6.6612-3.2572-8.6092 2.1188-6.1294 4.2062-15.215 3.974-21.418-0.043-3.8504-4.5838-7.3914 9.2482-13.598 8.1606-7.1086-0.0648-13.754-0.67321-19.479 4.07-7.167-0.20169-12.437 4.9396-18.849 7.1577-6.7507 1.8155-10.884 8.459-17.416 9.6294-6.5496-2.2434-4.1115-13.574-13.365-13.352-7.8731-6e-3 -15.364-3.1396-19.196-10.21-3.8596-2.242-7.2186-5.2484-2.4616-8.9641 0.87441-5.0013 8.7191-7.2201 9.4013-10.437-6.4135 0.72663-9.6347 9.0702-14.821 10.054 3.1622-7.5672 11.927-10.78 16.717-17.15-6.0972 1.714-11.724 6.7693-16.761 10.877-5.3768 2.822-0.60012 5.8645 0.10385 8.7987-5.6387 0.49729-10.707 3.8896-15.57-0.8727-6.0065 1.3465-9.15-9.6314-12.645-0.89347-2.964 6.9904-11.678 9.8352-18.769 8.6491-6.8666-1.1702-11.887-6.8541-14.319-12.98-0.43553-3.6387 2.0412-11.223-1.1575-12.529-0.62069 2.3003-4.3178 8.8115-4.9257 2.9421 1.1202-6.0077-5.865 3.6829-3.8895-3.0268 0.89236-5.6691 6.9502-5.1112 9.669-5.2798-1.8744-7.0737-13.183 1.2676-11.736 7.2848-0.2783 6.3734-11.158 0.39045-3.761-1.817 2.4118-2.5235 9.9861-10.738 1.775-6.4822-5.3338 1.8299-8.785 5.8819-6.8612 11.444-5.2724 3.3337-12.325 9.7633-17.834 2.4784-6.1148-3.1611-9.3782-11.153-16.249-9.6462-6.6194 0.92302-10.888-7.2932-18.162-5.8941-2.9602-1.8605-6.0303-3.9469-3.2833 1.0877 2.0856 4.2153 2.953 10.879 7.2804 5.5866 2.5854 1.9748 2.1512 9.8702 6.1233 4.078 1.309-8.5811 5.0373 0.0172 7.9911 1.4454 1.3888-6.3777 9.8205 2.7814 1.9129 2.1759-4.0185 6.3145-12.057 3.4106-17.947 1.4025-9.0639-3.0771-1.0364 6.7534-1.9562 11.233 1.468 8.6443 4.4732 16.877 5.6132 25.534 1.6145 8.5225 9.6177 12.569 16.426 16.479 11.159 5.8706 23.682 8.0516 35.459 12.205 9.1134 3.0127 16.642 9.6411 26.101 11.869 7.2652 2.4186 14.246 5.7748 21.952 6.7628 13.621 1.732 24.986 10.065 38.145 13.403 9.209 3.0796 19.103 3.6865 27.89 8.0845 3.9973 1.8197-0.35987-6.1143 4.0981-0.65464 6.7441 0.0894 14.238-1.2919 21.196-2.2756 15.163-3.4091 30.266-7.3306 45.504-10.259 3.3902-2.9004 1.7023-4.7727-0.21994-7.7541 2.5432 0.58391 8.5072 3.2858 4.0216-1.5601-3.4005-0.61149-7.4872-7.3086-1.3945-3.2676 5.8829 6.2975 17.426 10.953 20.867-0.1822-3.3559-6.7508-12.804-6.574-18.276-11.185-7.4251-3.7236 4.4656 6.7652 7.3676 7.1798 5.8165 5.7895-11.016-4.2381-3.9245 2.6701 2.7542 2.287 8.1597 5.5578 1.3061 3.7004-3.6503-3.3354-14.732-8.032-10.395-13.348-3.5622-3.0825 3.4232-3.9732-1.8588-6.774-3.4889-5.6938-3.5894-12.865-5.8674-19.117-3.0962-5.3278 4.505-19.272 8.3345-9.0543 2.18 2.7742 9.011 13.147 1.4174 7.1591-1.8876-0.73067-4.8037-7.3909-5.5746-3.0372-0.83598 8.7044 1.7858 18.992 9.8451 23.608 2.3133 1.972 11.886 7.8184 6.8038 0.79567-7.119-5.8944 4.4632 0.73484 7.1576 1.7418 0.87453 1.7278 5.4916 3.4776 9.1278 2.6192 5.4309 5.3401 18.809 3.3066 16.614 14.068 3.821 4.4999-2.507 6.3686-3.6529 1.8529 4.0269-7.0585-5.3082-3.6812-9.2208-6.7822-5.0794-2.8804-8.3838 0.81738-4.0427 5.0062 2.6379 4.2671 0.6996 9.245-0.10436 13.758-3.3534-2.7884-2.6819-7.1512-1.9832-10.983-3.7254 0.86169-4.8394 9.9815-9.384 11.325-8.2517-1.799-17.18 2.4522-25.457 4.1617-7.263 2.583-14.856 3.8979-22.275 5.8476-6.4861 1.627-9.9628 7.87-15.645 10.315-6.2576 7.56-11.067-6.2662-15.956-3.0272 1.5817 2.5922 11.507 12.504 3.3068 9.1477-5.9558-0.88983-7.3733-12.042-12.297-10.29 4.9727 4.3987 6.2511 11.578 8.4949 17.74 1.7422 9.3428 3.663 20.254 12.481 25.642 7.4325 1.7349 12.148 8.6622 14.765 15.435 3.5386 5.4572 7.0662 10.818 9.9462 16.631 3.2898 9.43 9.4862 17.375 16.751 24.068-4.747 5.708-11.769 0.85865-14.237-4.5228-4.6559-8.0618-8.2512-16.754-11.539-25.438-2.4167-7.9289-4.585 5.9183-6.5507 8.4249-5.3398 10.97-13.965 19.75-22.239 28.492-3.9675 6.6389-12.947 6.2604-19.498 8.6404-4.9209 1.5622-12.976 0.15365-13.848 6.0683-2.3801-0.41876-10.103-2.8032-4.3619 1.2963 7.0012 4.2793 15.828 0.65994 23.152 3.3549 2.2965 3.9071-13.355 3.4436-3.7495 5.344 4.6655-1.1699 8.3709 3.2413 2.2094 4.9221-1.751 2.0816-8.4434 6.8919-7.7724 1.3154 3.0259-1.4982 11.93-5.567 3.2305-4.2547-3.7031 2.2721-14.491 0.24737-7.2792-4.0183 2.8978-0.48293 11.804-2.211 3.626-2.4644-5.3576 0.31912-11.678-0.43472-16.436-0.0991 4.3492 5.8308 8.9043 11.484 12.686 17.801 3.8925 6.2895 10.053 10.633 13.437 17.165 3.9844 6.6483 12.504 8.0607 19.466 5.9903 10.318-0.83608-2.2266 6.1413-6.2592 6.3655-3.604 1.1606 2.6987 11.957-3.4592 10.826l-0.56771-0.64904-0.54232-0.8868-2.8e-4 -1e-3zm-29.823-70.696c-6.8148-2.1663-2.0558 2.752 1.8342 1.0813 3.3248-0.10519-1.3781-0.70937-1.8342-1.0813zm20.408-1.2232c9.4665-3.9509-14.807 0.86035-4.0091 1.0262 1.3412-0.32293 2.6744-0.67806 4.0091-1.0262zm-13.378-4.7366c-1.596-4.6239-2.5017-15.389-8.9711-8.304-5.0888 2.35-7.2784 10.087 0.60417 8.8629 2.3656-0.37645 7.0293 1.5406 8.367-0.55889zm-22.669-0.399c-5.2181-3.7278-2.8739-8.7563-1.0182-13.489-7.4953 1.2547-5.1338 14.312 1.0182 13.488v2e-4zm41.578-3.1308c3.8954-0.57773 12.558-5.0575 5.8941-7.045 6.0342-4.1446 9.558-11.817 15.943-14.94 4.6847-2.2676 9.3986-11.341 3.7202-14.066 0.0788-9.4522-13.4-10.415-12.017-19.875-0.84963-3.7527 0.29377-12.507-4.9051-12.219-0.35036 3.6869 4.3152 14.593-0.78353 14.299-2.0093-7.6391-5.4949-15.273-13.812-17.655-6.8452-3.2827-14.475-4.5212-21.038-8.552-3.2173-2.6753-11.65-4.9883-6.951 1.8015 4.0047 8.009-6.1163-2.5819-8.1564-4.5666-5.361-5.8549-13.544-7.2814-20.145-11.281-6.517-0.66323 5.4208 4.9042 4.4603 8.26-0.10801 8.8784-7.5208 4.3092-9.8165-0.78858-3.253-6.2488-15.214-8.2586-11.706-16.787 1.8782-6.011 0.11315-10.556-1.7057-15.478 3.117-6.595-1.6563-17.001-9.1383-13.064 3.1586 10.273-4.0794 19.975-2.7867 30.253-0.25975 7.2701 1.5339 14.73 6.8512 19.984 7.0762 7.9187 18.361 9.0087 28.214 10.716 6.4933 4.1371 5.9368 13.189 14.468 15.454 6.8422 4.3616 12.568 10.657 20.412 13.214 2.658-2.0717-10.541-8.5932-2.5791-6.4903 6.9801 3.0031 12.932 11.554 21.189 9.1628 4.6078-2.7988 7.4603-1.0017 11.968-3.8285-0.31974 6.1338-6.6322 7.725-11.659 8.8963-2.2378 7.4072-14.673 1.6808-14.9 9.5697-5.6834 4.2986 7.0888 10.155 6.6481 16.157 1.0954 7.1549-1.4503 16.19 8.9688 10.029 1.1219-0.38461 2.2425-0.77296 3.3636-1.1601zm8.7734-18.006c4.3625-6.4684 2.4313 4.0858 0 0zm-5.3403-1.0022c3.2846-3.1897 3.5593-5.3668-1.3434-2.7514-3.272-3.4938 6.7696-8.7221 8.4049-12.414 1.3241 3.178-1.1488 6.6696 2.7953 8.0354-0.74467 3.4111-6.6802 8.7968-9.8568 7.1301zm-16.784-16.857c-1.746-4.4068-9.3354 0.49975-12.865-3.7321 1.75 3.5624 10.459 7.705 12.865 3.7321zm44.675-3.9327c-1.6472-8.3982-3.4835 3.5257 0 0zm-0.42669-9.1056c-4.1387-8.2409-2.8022 6.044 0 0zm-75.527-2.683c-1.5804-3.5456-8.6053-3.7021-2.7454 0.0181 0.82232 0.68386 2.7344 2.1278 2.7454-0.0181zm-12.206-8.3551c-4.6904-3.8882 1.3412 3.7005 0 0zm64.084-18.736c-2.0891-2.6567-1.5824 3.7833 0 0zm-2.9801-10.869c-5.9916-0.74152 3.0787 6.1811 0 2e-5v-2e-5zm-10.752-0.4669c2.8059-7.2604-4.3264 2.8527 0 0zm-89.932-4.0676c0.67773-3.8287 0.77462-11.207-4.2175-5.3102-7.3965 2.2734 7.5798-11.016-1.6484-5.347-6.0902 3.864 2.2937-9.4643-4.7313-4.6248-1.6822-0.41437 5.9809-7.146-0.20442-4.7279-4.9574 2.1892-0.77723-6.0077-6.3831-5.4487-2.1035-3.3413 2.1949-14.264-3.2267-7.2408-1.8348 8.2173 5.6341 14.849 6.7094 22.815-1.1883 6.3209 9.8188 13.57 13.702 9.8843v-1.5e-4zm44.921-0.92967c-2.5196-2.89-2.6958 3.7507 0 0zm24.826-1.219c0.84468-3.5003-3.6688 3.0262-1e-4 0h1e-4zm-43.135-0.36261c-1.6346-5.8758-9.0625-0.68322-1.8735 0.38836 0.29082-0.24599 1.6659 0.36633 1.8735-0.38836zm60.269-0.34956c-2.0541-3.0745-1.7979 2.9703 0 0zm-9.6998-3.0397c-0.60257-4.8676-2.9434 6.3202-2e-5 0h2e-5zm15.463-4.252c-3.0176-6.6494-6.2329 6.0247-1.7821 1.2862 3.1615 5.6003 3.5653 3.2086 1.7821-1.2862zm-19.175 1.0896c-3.3563-1.001-0.95252 4.9455 0-3e-5v3e-5zm-24.486-2.4967c-0.66389-6.3771-3.3048 3.7569 0 0zm-10.423-2.1726c-1.2557 0.80048 0.74755 3.8319 0 0zm22.818-6.4262c-3.3532-4.7153-4.2859 10.83-2.7302 6.2649 1.0917-1.9773 2.6686-3.933 2.7302-6.2649zm18.636 6.6169c-2.6209-3.2735-0.46988 3.0007 0 0zm-13.732-3.8595c-1.6872-1.7602-2.0218 2.7935 0 0zm-16.041-3.4689c6.8982-3.2652-7.0956-4.5933-9.7461-6.2313-6.4471-1.2861-14.02-6.0612-19.953-4.5898 6.7927 2.2292 13.421 6.1606 19.021 10.52 3.3174 1.9555 7.0255 1.8395 10.678 0.30061zm-59.982-6.2189c1.91-3.1334 0.81718-9.3844-1.1786-2.9382-0.74058 1.171-1.0989 4.9566 1.1786 2.9382zm-12.157-7.5394c-1.1931-4.3474-5.408-8.0799-6.4369-11.316 1.5564-4.8212-6.5446 3.3268-0.69157 4.8728 2.1692 1.0076 5.0522 10.254 7.1284 6.4436zm9.6008-5.4451c0.3371-5.5475-9.3431-5.3015-2.6304-1.2054-0.0137 1.6132 1.822 4.2614 2.6304 1.2054zm222.3-3.557c-1.6624-4.4587-8.7618-2.7494-2.2173 0.13483 0.59808 0.34945 3.0825 1.8427 2.2173-0.13483zm-245.18-7.2933c-2.0541-3.0745-1.7979 2.9703 0 0zm-9.9177-7.629c-2.8091-3.0702-2.9268 2.9844 0 0zm157.92-35.52c-0.53464-4.285-8.5071 2.8669-1.5608 2.2418 1.333 0.44537 1.7148-1.4041 1.5608-2.2418zm-9.9177-0.42646c-2.112-1.3189-1.2238 3.4835 0 0zm22.887-6.4598c-1.8558-3.3525-10.68 8.201-3.4331 2.9979 1.2092-0.82423 2.8528-1.5447 3.4331-2.9979zm-15.902 1.613c4.1044-4.4432 11.966-6.2775 9.662-12.49 6.2484-6.7828-6.6139 1.1673-8.9591 2.1265-5.8258-0.56655 5.6201-5.9861 7.681-7.0994 7.4033-6.3445-5.195 0.31356-8.2928 0.82103-0.33012-3.551 11.467-7.3218 8.3727-8.4416-3.1022 1.8814-14.287 7.1983-7.5646-0.0364-0.0226-7.2853 9.6194-8.9209 14.019-13.481 3.7738-3.1323 11.959-4.6966 13.427-8.3413-7.226 2.1579-13.323 7.1293-20.173 10.287-2.3079 2.2676-9.1778 5.7832-4.7036 0.0419 5.4114-5.2134 12.483-8.9366 19.154-11.877 7.4346-2.5824 15.82-2.8493 21.891-8.7408 5.9816-1.7104-7.2802 8.8329 1.0968 3.9678 3.8186-2.2437 9.6819-9.5616 10.693-4.0016 3.3214-5.808 6.5796-3.3272 2.8311 1.3254 3.7843 4.9908-5.8041 10.659-9.6066 13.674-1.8588 1.9698-9.5644 3.0492-3.5149 0.23298 3.5453-0.64268 13.22-10.926 4.9756-6.2314-7.7985 5.018-16.935 7.4213-24.787 12.371-7.3566 5.5505 13.668-5.2504 5.4012 1.377-3.5919 1.1766-7.1499 7.5401-1.2052 3.5973 6.8025-2.3155 13.047-6.3805 20.098-8.3919-1.0871 2.014-5.5082 6.14 0.42592 3.6878 4.1854-2.607 13.537-3.037 13.904-8.2652-2.6043 2.4832-13.003 5.7255-5.9821 0.13462 3.3868-1.8958 9.4422-5.3465 8.974-9.0805-1.796 2.5123-10.948 6.674-5.7595 1.7665 4.0082-1.2986 7.4491-13.017 10.194-5.8378 3.4155-3.5021 13.737-2.9527 14.579-5.7102-2.7584-0.37485-16.368 3.8856-9.8972-0.66423 3.9658-6.2637-12.512 1.4695-5.3013-4.6599 5.9101-5.85-10.432 3.1352-10.246-1.4711 6.2804-4.5464 15.222-4.527 22.838-5.3524 7.8521-1.8924 16.342-2.0275 24.221-0.13546 3.5656 2.4972 8.3888 1.647 3.2121-1.8797-6.0472-4.8579-13.681-7.3475-21.415-6.1565-4.6022-0.46298-12.475 0.78052-14.782 3.236 8.7876-0.41928 17.697-2.0641 26.419-1.0968-6.29 3.5958-15.943 2.5266-23.418 4.7396-6.5874 0.014-14.648 3.3595-20.212 2.4047 2.5923-4.7086 13.141-2.2919 13.386-5.9104-6.5468-1.2477-14.994 4.4819-20.112 2.3372 2.4455-2.462 8.9702-3.9132 1.4592-3.215-2.8794 1.1707-12.807 3.2549-6.7563-1.3259 3.4986-0.61136 13.286-5.6172 4.3453-3.3793-5.3529 0.34035-12.319 3.8032-16.621 2.6481 2.2141-3.5206 12.727-3.9543 11.157-6.3775-6.4055 1.833-13.012 3.2825-19.372 5.316-1.1829-2.61 12.111-6.8824 3.4168-5.4808-3.73-0.25268-12.469 5.5096-12.958 1.2615 2.0961-4.1952 13.798-4.0679 12.385-6.9174-7.3462 1.4523-14.394 4.2054-21.524 6.3017-1.2723-3.5254 14.586-7.773 4.1941-6.4602-6.435 0.48059-13.315 7.0138-18.999 4.9146 5.1075-4.9042 14.256-6.1079 19.362-9.0088-10.074-0.0236-19.391 4.6977-28.474 8.5232-2.216-1.3835 6.0082-7.9741-0.65697-5.1502-3.1516 2.0737-10.846 0.79235-4.1717-2.352 0.92158-4.9423-10.108 2.485-13.381 2.5533-1.799-3.2115 13.72-7.9302 4.4643-6.8758-5.2046 0.85731-13.976 6.4262-17.154 4.4254 3.2848-4.8586 13.092-4.0467 15.095-8.4563-18.085 2.3365-34.444 11.269-49.8 20.612-3.6662 2.1246-3.0439-1.0164-1.9665-2.4422-3.9283 4.1756-10.896 0.47791-11.818-1.8094-6.4233 4.7217 2.8118 10.332 6.3386 11.851 4.3572 2.2824 10.598 2.9123 13.271 7.6837 5.6789 1.3732 6.3553 6.8722 7.6687 12.015 5.7565 3.7448-3.9664 7.3595-6.2629 10.84-1.031 0.89151 8.1898-0.98111 2.0582 2.6498-7.3809 1.6593-11.986 8.2419-16.758 13.515-6.3101-0.82771 6.7359-12.984-1.863-8.1738-5.0078-4.7617 0.3672 6.3564-4.8868 7.5545-2.1234 3.6303-8.7e-4 7.4432 3.445 5.4312 4.2247 5.6402 5.5454-6.7645 9.9302-7.7802 5.1094-4.2593 11.966-11.634 18.343-11.098-5.3908 3.6735-12.305 6.6617-15.59 12.707 4.5712-0.87105 11.558-9.4852 15.109-7.4089-3.8835 1.4356-11.622 9.7589-3.0861 5.0942 5.5117-2.9438 10.617-8.1003 14.008-12.393-6.6241 2.5221-1.2356-2.0426 0.0684-4.5042-2.574 1.3245-12.795 8.6186-6.6748 1.2074 10.025-9.4517 22.493-15.918 35.007-21.385 4.1533-0.48734 13.598-7.9234 15.052-3.8607-3.7157 2.7437-15.959 3.3994-14.57 7.6081 3.1986-1.0503 14.081-3.3548 5.4933-0.0597-4.3872 0.42285-10.586 7.9412-2.4064 4.3309 3.9004-2.0709 6.7737-0.3675 1.6226 1.6102-3.0264 0.82816-11.588 6.6867-3.5385 3.7004 4.6556-2.434 6.9018 1.1795 1.0793 2.6937-4.3091 1.611-3.8826 4.2436 0.64737 2.0181 6.8232-0.66305-5.114 5.7072-7.4877 6.8133-8.9536 5.3188-18.344 10.394-25.417 18.189-1.7632 2.894-5.7004 14.286 0.888 7.9597 5.1907-2.7923 0.32445-7.4606 6.3624-10.183 6.4288-6.2275 13.934-11.393 22.101-14.915 4.4722-4.2778 12.794-3.9835 17.416-8.7989 1.7896-3.1033 11.535-9.6435 5.1028-2.7859-4.3686 3.7618-6.5575 9.2039-13.385 9.4773-4.0339 0.9509-8.0186 5.1754-1.3232 3.0532 2.5539-1.6666 11.51-3.5381 4.9358 0.3453-6.4396 2.3555-12.815 6.0679-18.866 9.3283-3.602 1.7136-5.2775 5.8611-0.31386 2.0809 7.179-3.1262 13.896-8.1254 21.749-9.2906-4e-3 3.6948-13.054 4.872-8.9416 6.9173 3.0351-0.87769 10.548-5.5382 11.785-2.6571-3.1583 1.3361-11.651 6.9803-3.6764 4.0151 3.0656-1.9421 9.234-3.4073 3.0378 0.55441-3.9876 1.1792-9.0539 6.3795-2.0156 2.9977 2.8336-2.5107 6.1043-2.5793 7.2682-0.13881 7.6859-1.8582 0.0393 2.61 1.0048 6.3501-6.4662 5.2729-14.248 9.2393-19.553 15.807 0.3861 2.8107 11.977-7.3164 6.2388-0.0706-4.5304 7.7912 12.004-8.1136 7.7535-0.17438-3.3115 1.7338-11.001 10.58-2.827 5.124 2.5108-2.2984 13.305-8.6096 6.0947-2.0255-5.3743 7.3303 4.8186-1.5372 7.5671-2.9295 7.8707-0.78262-3.283 4.506-5.0638 6.8456-4.0266 2.2421-3.4237 7.1607 1.106 3.1019l1.2049-0.91667 5e-5 -2e-3zm1.4072-45.352c2.2989-6.7096 10.417-9.1875 16.156-12.833 8.9378-4.7262 18.622-8.3953 28.635-9.8292-4.3284 3.1981-12.597 5.9665-18.524 8.213-9.3298 2.5014-17.679 8.1449-24.87 14.451-0.0224 0.0763-1.4096 0.72944-1.396-2e-3zm7.629 0.0702c4.9442-6.6037 13.941-6.9688 20.302-11.479 1.3416-1.9503 11.158-7.1855 8.9054-2.7584-7.1785 2.1891-11.534 10.225-19.587 10.514-2.925 0.79894-7.0001 5.0363-9.62 3.7234zm-12.969-4.3895c2.7289-6.7897 10.249-10.239 16.468-13.29 6.6656-3.2161 13.501-5.7 20.704-7.4093 3.5616-1.7477 13.166-1.9705 4.2852 0.53115-7.9431 1.7748-15.202 5.3269-22.671 8.4246-6.8013 3.0158-12.981 7.2354-18.664 11.895l-0.12274-0.15156zm-14.495-6.0427c3.2379-3.1331 6.3861 0.78142 0.95752 1.1444-1.5384 0.97084-1.7173-0.74291-0.95752-1.1444zm-45.01-0.57218c4.5992-7.0471 13.302-10.144 20.351-14.326 5.8703-2.992 11.99-5.2916 18.373-6.845 2.9252-2.4772 8.372-0.60219 2.4232 0.53768-8.1934 3.3768-16.465 6.5829-24.106 11.11-6.2714 2.2381-10.75 8.2584-16.711 10.31l-0.24508-0.30375-0.0854-0.48308zm46.536-4.3051c5.5859-0.80557 10.68-8.4113 15.768-7.9551-5.3063 2.2842-9.454 10.31-15.768 7.9551zm16.784-1.4744c5.294-6.267 14.646-7.552 22.085-10.383 2.8153-1.6081 13.855-2.904 5.6204 0.41167-8.8769 2.3569-17.527 5.3-25.57 9.8522-0.41806-0.0587-2.1629 1.4338-2.1355 0.11905zm-62.258-1.3397c3.8885-6.1419 11.905-9.033 18.167-12.655 6.0906-3.1903 12.533-5.8144 19.061-7.7274 5.3816-1.5612 5.7741 1.1847 0.41753 2.1434-6.9327 2.1347-13.381 4.9633-19.773 8.3253-6.4959 2.1138-12.094 10.04-18.028 10.561l0.15603-0.6476zm104.98 0.45484c1.3151-2.4032 13.853-7.4398 11.208-4.2561-2.8577 1.3599-8.9922 5.142-11.208 4.2561zm-107.19-6.1067c5.53-5.7121 13.209-9.4156 20.338-12.92 4.0031-1.5181 12.5-5.5832 14.679-2.5926-10.681 2.7326-20.344 8.5937-29.777 14.171-1.3648 0.33562-8.3462 6.7594-5.2401 1.3426zm-3.4292-1.8193c4.6952-6.4368 11.738-11.685 19.427-14.078 5.001-1.5588 9.7876-4.8825 15.285-3.5644-7.8468 2.7646-16.056 4.7488-22.83 9.8127-4.0793 1.3909-8.083 8.9023-11.882 7.8294zm71.14-0.66759c4.0994-4.2408 1.4 2.9064 0 0zm-9.3452-2.0164c3.9955-5.2668 3.5147 1.9094 0 0zm16.228-0.54252c3.0564-0.70687 1.5175 1.3971 0 0zm-83.363-0.71947c4.3459-6.3163 11.785-9.4672 17.916-13.651 2.2854-1.812 16.601-5.1756 8.5949-1.238-6.5872 2.8712-13.249 5.7764-18.967 10.191-2.4197 1.1087-4.9163 5.7318-7.5442 4.6983zm72.187-1.457c3.0574-2.1372 10.67-4.5854 12.739-3.3966-3.8239 0.73951-9.7379 4.4938-12.739 3.3966zm17.835-0.35785c3.2331-2.9104 14.144-0.97909 4.9525 0.66317-1.7244-0.063-10.737 2.0086-5.3536-0.43515l0.37819-0.21503 0.0229-0.013zm-94.6-0.3127c5.37-5.766 10.54-12.26 17.963-15.269 9.1046-1.8502-3.9739 4.7108-5.935 6.6138-3.9172 1.8838-9.1325 9.5534-12.028 8.6549zm23.457-15.449c-1.0511-3.5394 9.8818-1.3405 2.4111 0.0456l-1.4888 0.18481-0.92231-0.23046zm60.987 93.586c2.3901-3.1628 8.3585-5.7503 9.5645-8.4565-4.3746 1.0804-14.227 6.7155-11.544 9.9177 0.90026 0.0153 1.7592-0.60243 1.9792-1.4612zm-15.783-0.90912c-2.9365-2.9472-2.936 4.0794 0 0zm-9.3402-5.6984c-3.8944-0.0975-1.0926 5.3376 0-5e-5v5e-5zm-5.9178 0.7761c-1.8834-2.7872-1.4905 3.7257 0 0zm64.414-1.9089c0.0784-4.1378-11.743 3.2216-2.4659 0.96915l1.0938-0.32143 1.3721-0.64772zm-67.965-0.88186c4.0525-1.5318 8.228-10.226 1.2711-4.5121-2.2647 1.1096-7.0139 9.1885-1.2711 4.5121zm-5.747-1.3125c-0.59455-2.658-3.629 3.1729-0.52986 0.8052l0.52986-0.8052zm107.33-1.5735c-1.3975-2.719-2.7122 2.596 0 0zm-46.548-4.4612c-3.5518 0.80523-5.5658 6.9565-1.0484 1.6835l0.64432-0.77568 0.40407-0.90778zm8.0214 3.2719c-1.9055-1.5368-1.6343 2.7424 0 0zm-114.44-1.1444c-1.9702-2.519-1.4427 3.6816 0 0zm42.722 0.48886c2.5694-5.4932-4.214 0.84243 0 0zm7.4151-1.2718c3.5197-0.83969 8.2365-8.839 1.8924-3.8068-2.6114 1.3934-7.9444 7.6105-1.8924 3.8068zm66.91-2.2236c4.2183-0.0846 12.016-6.4771 3.4095-3.7994-3.1974-1.1608-10.982 5.6947-7.9948 5.5698 1.4562-0.75634 2.9283-1.5604 4.5853-1.7703zm-140.67-0.0577c0.2052-4.0451-4.3923 4.8548 0 0zm185.94 0.20064c-2.0938-3.2579-2.5419 3.8522 0 0zm-135.05-1.711c2.3748-4.5831 11.841-9.7266 11.404-12.639-5.1517 4.8689-13.484 7.6143-15.697 14.805 1.524 0.64329 3.1632-1.3176 4.293-2.1659zm156.93 1.6207c-1.0864-4.699-4.4118 2.773 0 0zm14.924-0.45263c2.3618-4.4757-6.8519 1.8065-0.98733 0.82723l0.98733-0.82713v-1e-4zm-151.54-0.79987c-1.393-3.4909-3.9226 4.0239 0 0zm62.861-4.4027c6.8748-5.3545-2.8372-1.4263-4.7695 1.3179-3.9132 0.79144-7.1657 6.5175-1.8651 2.5673 2.2517-1.2244 4.4646-2.5214 6.6346-3.8852zm42.545 4.7731c-0.96267-6.4732-4.5177 3.2312 0 0zm36.619-1.0324c2.7064-1.4872 7.4615-5.4256 1.0711-4.1879-1.2208 1.8959-8.2178 6.971-2.0122 5.3086l0.94112-1.1208zm-190.37-0.61764c4.9065-5.5818 10.647-11.299 17.972-13.313 1.6382 2.2592-9.9428 7.3818-1.3404 6.7872 5.7849-3.6674 9.1737-9.7147 14.826-13.996 2.6937-2.7018 7.521-5.8265 9.2492-8.0394-6.2369 1.9415-16.51 12.462-19.252 11.145 4.3536-5.8736 10.976-9.5258 16.775-13.671 7.4565-4.5951-3.7244-1.5767-5.8416 0.91632-7.8509 4.1656-12.941 12.012-21.113 15.739-5.1141 4.131-14.035 9.7161-13.549 16.149 0.94672-0.28525 1.6302-1.0176 2.2737-1.7165zm110.61 0.90859c-1.6872-1.7602-2.0218 2.7936 0 0zm53.785-1.0773c7.9517-3.0595-9.382-1.0468-2.0679 0.7455l0.87116-0.3113 1.1968-0.4342zm-168.94-1.2483c0.21397-2.5899 0.28264-11.244-3.1202-4.8368-4.4678 6.0925 5.6442-0.86453 1.2535 5.8777 0.12392 1.6728 2.0571-0.93533 1.8667-1.0409zm70.525 0.0819c2.1298-5.1495-6.369 4.8269 0 0zm47.538 0.0476c-0.59454-2.658-3.629 3.1729-0.52987 0.8052l0.52987-0.8052zm30.659-0.89222c-2.9366-2.9472-2.9359 4.0794 0 0zm28.227 0.46309c1.3515-3.9016-7.9937 2.6659-1.0292 0.75086l1.0293-0.75086h-8e-5zm-119.19-1.0018c-2.1279-2.0116-2.4363 3.6059 0 0zm-140.2-0.14241c-6.302-2.6984 0.38781 2.8072 0 0zm73.096-0.71522c-0.59456-2.658-3.629 3.1729-0.52987 0.80521l0.52987-0.80521zm73.763 0.71522c-0.79613-2.282-4.2275 2.7862 0 0zm46.766-2.4082c3.5473-0.54168 11.821-9.2335 3.876-4.4076-1.815 1.7864-11.52 5.9295-8.4916 7.0539 1.6299-0.70727 3.1214-1.6958 4.6156-2.6462zm10.168 1.9018c0.85864-2.947-4.9289 3.9196 0 0zm46.836-0.94717c7.7471-1.6899 15.31-3.873 22.86-6.1994 6.9563-3.7736-5.1912-0.82087-7.2482 0.34486-7.0952 1.9678-15.176 0.981-21.629 4.6766-2.453 4.7811 4.1683 1.309 6.0171 1.178zm15.624 0.69063c-2.9763-2.3446-6.3403 2.2407-0.72833 0.53595l0.53269-0.24043 0.19564-0.29552zm22.037-1.3351c1.8774-3.4019 3.0067-9.9888-1.6287-4.4606-3.9792 1.8609-2.259 10.515 1.6287 4.4606zm-224.1-0.30748c3.8384-7.0476-5.4167 4.5464 0 0zm93.399 0.52246c2.7227-4.1564-6.3392 3.7368 0 0zm62.007-1.901c2.1215-4.2504 5.2494-5.257 8.8881-6.925-0.85775-8.2728-11.468 6.5004-13.106 9.8096 1.7856 0.0439 2.8992-1.9837 4.2183-2.8847zm14.995 2.2669c-1.3199-1.4415-2.576 2.3238 0 0zm-204.07-1.961c-3.7984-4.5039-1.9031 5.6992 0 0zm123.4-0.35902c3.8081-1.1185 5.4838-6.0215 0.30374-2.3697-3.5021 0.8483-7.8274 6.867-1.7965 3.21l1.4928-0.84029zm8.5826-0.35884c1.845-3.667-5.9712 2.5805-1.0069 0.8082l1.0069-0.8082zm65.882 0c7.2165-2.5291-0.3497-3.0505-2.9878 0.0312 0.15915 1.7824 2.4002 0.92935 2.9878-0.0312zm-140.65-2.3791c-1.6978-4.0162-4.2437 6.8881 0 0zm152.58-0.29392c-2.0398-1.7667-4.2443 4.518-0.44316 0.7401l0.44316-0.7401zm-122.06 0.72077c-1.6872-1.7602-2.0217 2.7935 0 0zm73.095-0.67019c-1.6627-2.4557-2.7501 4.0561 0 0zm-126.16-2.4064c6.3086-7.3006-9.405 0.28919-2.8563 2.978 1.3142-0.59784 2.0601-1.862 2.8563-2.978zm108.76 1.5381c-3.0506-1.5928-2.6982 3.8141 0 0zm79.799-0.31444c3.147-0.12759 10.864-3.0722 3.1328-2.9057-4.0738 0.43034-15.228-0.7279-5.4661-2.7413 8.0071-1.8225 16.345-1.8083 24.078-4.88 2.8419 4e-3 14.636-7.6969 9.284-1.5578-2.0624 1.3406-10.146 5.9401-3.149 3.8856 3.2583-2.7735 5.9814-1.5751 8.2899 1.6534 0.89162 2.4857 1.1548 5.7245 3.4836 1.1144 2.0668-1.8134-0.13896 10.628 3.5074 2.9755 0.72165-7.1862-1.1213-14.557-2.7939-21.542-1.7137-2.955-2.464-9.3032-6.94-8.4342-13.246-0.59774-26.181 2.8229-39.279 4.0386-3.5559 0.0679-9.3039 3.6198-3.8556 6.0129 9.068-5.4345 20.06-6.1624 30.318-7.7136 7.978-2.3045 17.308-0.15248 17.088 9.7691 0.80011 3.4671-0.96283 8.465-2.6647 3.2113-6.686 2.3476-13.379 5.1683-20.503 6.2652-6.2332 0.7991-15.009 3.413-19.957 1.549 5.216-2.7603 12.698-2.2483 17.204-5.0576-5.9536-1.3691-16.549 4.0343-19.81-0.21081 4.8033-0.94614 2.479-2.0432 2.3029-4.4745 5.7247-3.322 13.074-1.5528 18.624-5.3791-7.8751-0.95797-15.965 1.3611-22.712 5.2972-3.7904 4.0296-2.645 8.9999-3.7552 13.118 5.559-5.2252 2.5966 2.0765 2.3171 4.895 2.9349 3.5173 7.4968 1.6787 11.257 1.1114zm-168.44-1.106c-0.59455-2.658-3.629 3.1729-0.52987 0.8052l0.52987-0.8052zm59.572 0.42694c-0.0172-5.2489-4.9132 3.0803 0 0zm34.408-1.619c6.3977-5.5268-9.4636 4.3571-0.93184 0.66577l0.93184-0.66577zm-149.63-1.653c-0.0431-7.1642 7.0959-14.194 14.479-13.552 8.6595-1.1529 7.9287-12.124 14.712-16.737 4.5348-3.9682 12.239-5.9594 15.315-10.373-6.7856 1.8653-12.382 6.4853-17.811 9.7985-5.0394 1.839-6.7411 13.42-11.093 11.819 1.1192-7.2152 7.8247-12.442 12.938-17.22 3.4586-1.1717 8.0375-6.4958 1.2956-2.9716-7.2033 4.3293-13.652 10.488-17.481 17.964-5.7996 0.1478 2.8691-10.353 6.2433-11.774 2.7749-1.5176 5.1963-8.2573 0.24497-3.3928-5.6298 3.5232-7.9011 12.103-12.701 14.401 0.88176-6.691 7.8246-13.593 13.87-18.055 3.8451-5.9795 17.948-5.6496 16.604-13.314-1.6674-8.8721 10.736-10.472 16.274-14.547 3.4799-2.474 13.658-4.7514 13.193-7.8264-9.4161 2.7046-18.399 7.2367-26.612 12.573-2.4108 1.925-12.423 11.377-10.734 4.3929 7.9504-6.8755 17.608-11.385 26.68-16.584-6.1383-1.7151-10.523 2.9513-15.667 5.4256-6.9412 1.8025-10.394 7.9263-15.349 11.74-2.7939-4.0738 7.8618-9.2445 11.104-12.842 2.724-1.2094 9.8098-6.4671 2.6724-3.8424-6.9057 2.9231-13.431 7.2518-20.462 9.5518 1.2932-6.8767 11.344-6.8427 14.704-11.679-6.245 0.88645-12.582 5.5315-18.593 8.3167-6.339 3.069-11.864 7.4209-18.184 10.446-2.9507 1.6364 3.3266 2.3919 1.7403 5.5482 3.8418-0.0141 6.8917 3.4767 2.077 4.7888 4.2024-1.1602 15.78-4.8563 16.35-0.4065-4.638 1.5147-13.791 6.6929-13.716 9.6341 5.5825-2.2957 12.832-9.2652 17.849-7.6907-1.885 6.229-9.9117 8.7504-14.34 13.975-2.5515 3.7774-5.8329 3.5161-8.0204 2.6763-4.4223 5.1512-11.721 6.709-15.323 12.738-2.9233 2.1583-7.2378 8.966-1.2338 3.52 6.3205-2.5538 12.495-11.161 19.826-7.6917 3.5946 3.9492 7.8095 7.5592 0.98533 11.721-3.9908 1.9904-7.795 12.84-1.583 10.98 0.43779-0.45549 0.11089-1.1473-0.25253-1.51zm188.54 1.608c-1.9055-1.5368-1.6343 2.7424 0 0zm-6.8882-0.30664c2.2738-3.9585-5.063 2.6535 0 0zm55.729-0.42969c2.2229-5.3926-9.5146 2.9147-1.2481 0.82408l1.2481-0.82418v1e-4zm-141.15-0.74444c1.277-4.0725-4.5693 3.8346 0 0zm157.38-0.38145c-2.7331-4.4769-5.586 4.7594 0.11469 0.77306l-0.11469-0.77306zm-263.03-2.8175c1.5692-4.0882 7.3516-0.56023 7.3505-6.6115 3.7739-5.2387-8.4148 0.38672-9.8831 2.1951 3.2927 2.4424-3.0414 12.862 2.5326 4.4164zm14.864 0.72343c-1.4404-2.689-3.7597 5.9675-0.33616 1.0872l0.33616-1.0872v2e-5zm109.12 1.6803c2.64-5.6788-8.4153 2.346-2.9732 1.1767l1.6971-0.34566 1.2762-0.83104h-8e-5zm-168.22-3.9729c1.6973-6.2426-7.069-4.3233-3.0676 0.65604 1.6921 5.4149 3.5471 4.1572 3.0676-0.65604zm299.26 2.9454c-1.8426-1.4417-10.734 2.3291-2.2571 1.124 0.76468-0.22797 1.8256-0.31601 2.2571-1.124zm-39.734-2.8422c-3.7522-0.26856-3.1715 6.5733-0.13062 0.85292l0.19708-0.52228-0.0665-0.33064zm-43.652-1.0568c-0.23501-2.6971-3.3725 2.7254 0 0zm-124.04-3.365c5.0816-6.7226-4.7503-1.6339-2.3578 1.8392 0.95378-0.3729 1.6532-1.1362 2.3578-1.8392zm130.14 0.3134c8.2231-3.5108 17.668-5.8844 23.268-13.412-6.1627 2.8745-11.638 7.7887-18.361 9.9767-3.3869 0.39391-13.845 7.2754-4.9073 3.4356zm-113.76-3.4788c-0.89209-3.8877-6.5801 7.122-1.6325 1.8121l0.7373-0.652 0.8952-1.1602v7e-5zm-81.566-0.2543c3.3255-4.3351 13.09-10.428 12.389-14.221-7.1047 0.92796-13.457 6.4065-15.852 13.055-1.0189 5.3372 0.14809 4.5299 3.4637 1.166zm60.667 1.6352c-4.2237-3.4109-10.476-5.6001-3.7693-10.999 1.4109-1.9855 10.294-9.5616 4.7065-7.6035-4.4463 5.0297-14.214 11.445-11.798 18.491 2.8801-0.94216 9.9662 2.2262 10.86 0.11172zm79.73-0.19073c-0.23495-2.6972-3.3725 2.7254 0 0zm139.66-3.0697c2.4935-0.70034 10.055-0.84715 5.5233-4.5177-3.8904 2.199-14.377 5.5278-14.665 6.4844 3.1156-0.23625 6.1761-1.0088 9.1413-1.9666zm-21.561 0.67342c3.3245 0.0102 9.6277-2.6889 2.23-1.9454-2.4761-0.30648-16.635 1.7675-7.8374 2.704 1.8793-0.1714 3.744-0.46781 5.6074-0.75864zm-266.84-5.7264c1.3924-4.4879 4.1257-2.4124 5.9058-1.6994-3.4492-6.6949 9.0457-6.9459 11.56-12.525 1.5079-2.68 11.46-8.4718 7.3298-9.2882-6.9366 2.9903-9.5905 12.472-17.28 12.842-6.5305 1.773-15.513 7.0502-16.203 13.987 4.9523 3.3345 5.5387 1.7724 8.6878-3.3173zm205.2 4.3081c-0.4411-2.5404-4.2831 1.8004-0.66915 0.5388l0.66915-0.5388zm-231.54-1.3645c1.2757-2.9671 5.2788-13.213-0.83866-7.1098-2.6029 0.99696-1.9082 11.829 0.83866 7.1098zm305.16-0.16123c0.48346-2.6861-8.3395 1.6258-1.3789 0.55001l1.3789-0.55001zm-201.6-5.6772c2.3309-2.6512 5.3273-5.2641 1.7649-6.9918 3.1035-2.0312 5.9444-6.0377 0.50144-2.3648-1.9669 1.8343-6.7597 4.6502-1.4875 4.5154 2.9929 0.57678-3.6989 4.09-4.2412 5.8602-4.0351 3.1759-1.6636 6.2235 1.3445 1.441 0.72326-0.80494 1.4246-1.6293 2.1179-2.4601zm46.728 4.1064c-2.0892-2.6566-1.5824 3.7833 0 0zm-56.137-0.44561c0.87-4.7479-3.2758 4.2578 0 0zm75.209-0.24845c-2.0445-1.8348-3.5698 2.9788 0 0zm-62.335-0.7937c1.8552-3.4286 11.67-5.5533 9.2385-8.6897-2.4482-1.166-13.088 10.644-9.2385 8.6897zm18.087-0.0381c-1.6873-1.7602-2.0217 2.7936 0 0zm31.651-2.8777c-3.7439 0.27919-4.1716 4.6443-0.36781 0.581l0.36781-0.581zm8.4013 0.99554c6.8075-5.5505-10.397 4.6276-1.0489 0.63196l1.0489-0.63196zm-152.15-0.0331c5.2293-1.0413 10.994-6.9864 14.238-9.2769-4.7499-0.95355-12.034 9.2702-13.72 4.3007 4.4452-7.3107-4.1085-0.35626-4.9514 2.1003 3.6845-0.69549 0.1131 7.1307 4.433 2.8759l-8e-5 3e-5zm86.158-2.045c-1.166-2.8384-6.3685 6.8657-0.56309 1.2021l0.41065-0.6141 0.15244-0.58801zm214.57 1.2945c5.5552 0.2109 4.6673-3.1964-0.30461-1.8594-3.5178-0.63481-13.889 3.6565-5.0173 2.6912 1.757-0.37422 3.5359-0.64257 5.3219-0.83174zm7.0568 1.1849c-2.3037-2.5464-0.2089 2.6584 0 0zm-168.72-2.098c3.1747-2.0463 10.378-9.0363 9.8804-1.9816 3.9055-0.53169 10.613-5.1506 2.9344-4.0666-4.3932-4.6147-12.184 4.4617-16.891 6.6204-1.5876 3.4959 3.3393 0.0511 4.0765-0.57218zm-113.59-1.8023c-1.1569-2.7112-7.2334 3.9733-1.0704 0.6478l1.0704-0.6478zm15.002-4.3102c1.7457-3.0951-6.4388 0.37326-2.358-3.6308 5.2706-8.0952-11.656 4.1662-2.0901 5.4442 1.6116 0.27797 3.7787-0.07 4.4481-1.8134zm70.1-2.0888c0.53394-4.1514-4.9736 3.3924 0 0zm172 0.43221c-2.9456-0.87655-8.8064 1.153-2.6702 0.63405 0.33696-0.25707 2.9445 0.41003 2.6702-0.63405zm-259.66-1.0922c3.225-2.8475 5.8772-10.868 0.34493-4.3314-1.9632 2.9472-10.653 6.4278-2.0581 4.9311l1.0263-0.26669 0.68687-0.33296zm283.67-2.224c-4.6556-5.9313-13.738-2.7974-20.289-3.0653-3.1963-0.54682-16.736 3.4495-7.4946 2.9702 7.4931-0.38826 15.116-1.0798 22.564-0.0624 1.759 0.77112 7.3702 5.98 5.2193 0.15737zm-261.61 0.16021c-3.8849-0.76412-3.0907 4.6532 0 1e-5v-1e-5zm110.34 0.27906c-3.6697-1.1467-3.4797 4.9986 0 0zm-142.62 0.38425c3.0842-1.0366 9.2808-12.984 2.1485-7.1348-1.7005 1.531-5.8914 6.8059-5.5915 1.9478-2.9719 0.62867 0.20072 8.8602 3.443 5.187zm260.39-0.76534c-0.53917-1.6298-10.783 2.0496-2.7128 0.99014 0.9371-0.22056 1.879-0.49412 2.7128-0.99014zm-254.05-2.133c0.99568-5.5366-4.2022 5.0395 0 0zm28.99-0.42648c-1.9055-1.5368-1.6343 2.7423 0 0zm216.55-0.25278c1.5524-3.8165-7.6148 1.3546-1.1626 0.48972l1.1626-0.48969 3e-5 -3e-5zm11.07-1.3557c2.5432 0.21848 15.364-1.743 7.0805-2.3674-4.3682 0.85975-14.574 0.94812-15.713 3.4555 2.893-0.14185 5.7371-0.87546 8.6325-1.0881zm-266.53-5.3553c-2.1997-2.8671-7.1789 9.082-1.4 2.2639l0.72773-0.91241 0.67231-1.3515zm40.862-0.82729c-3.6746 0.9261-3.1656 4.0853 0 0zm3.7875-2.3157c-2.4746 0.0362-2.2413 2.8784 0 0zm-33.588-0.91024c-0.23495-2.6972-3.3725 2.7254 0 0zm5.3403-3.0516c-0.23496-2.6972-3.3725 2.7254 0 0zm245.08-1.1226c8.7311-2.2419-9.3606-3.2593-9.5378 0.32273 3.0193 1.0468 6.4516 0.0791 9.5378-0.32273zm-247.7-2.6784c7.2797-1.8226 13.351-7.1725 18.164-11.457 4.3065-0.071 11.145-7.9671 3.3627-3.8134-6.3581 2.0147-12.777 8.9904-18.527 9.2482 6.0877-7.5995-11.515 1.1989-8.2873 6.0199 1.1784 2.4632 3.5458 0.24276 5.2879 2e-3zm226.67 0.22811c-3.3926-0.56017 0.43097 1.3909 0 8e-5v-8e-5zm8.581-4.136c-2.9183-2.3648-12.279 1.1618-3.7482 1.0559 1.013-0.25091 3.2637 0.12623 3.7482-1.0559zm-27.606-1.1884c-3.024-0.64648-2.5616 1.2014 0 0zm-182.32-3.9354c2.1453-2.3963 13.623-8.9496 4.6001-5.3005-2.693 1.4561-14.445 5.598-9.7497 8.2154 2.0096-0.24178 3.6612-1.6496 5.1496-2.9149zm52.814 0.45385c4.9881-4.1866-9.6821 2.3646-3.1252 1.984 1.1571-0.4466 2.2393-1.1121 3.1252-1.984zm11.599 1.6981c-2.2194-6.2175-4.4096 2.6025 0 0zm134.5 0.059c3.7758-2.6236-14.786-0.22575-5.2251 0.61083 1.7537-0.027 3.5251-0.15265 5.2251-0.61083zm-228.11-1.2484c-1.8894-1.5281-1.6428 2.747 0 0zm189.2-1.0993c3.7232-2.369-8.2906 1.3199-0.95627 0.28787l0.95627-0.28787zm16.927 0.24184c-3.3927-0.56018 0.43095 1.3909 0 8e-5v-8e-5zm5.8509-0.15817c1.5524-3.8165-7.6148 1.3546-1.1626 0.48972l1.1626-0.48969 2e-5 -3e-5zm-112.42-0.84657c-1.0401-1.8524-0.87084-5.8868-2.121-0.73485-5e-3 1.1428 1.5286 2.1733 2.121 0.73485zm58.743 0c-0.44111-2.5404-4.2831 1.8004-0.66915 0.5388l0.66915-0.5388zm-153.15-1.3351c-2.6065-3.377-4.8172 4.3133 0 8e-5v-8e-5zm82.58 0.63278c6.7818-2.7879 13.394-5.6591 19.818-9.4404 3.2135-3.4589-7.2753 2.4993-9.338 2.2352-4.9394 1.5936-10.488 4.2053-13.942 7.6981 0.98503 0.15216 2.8226 0.59627 3.4618-0.49302zm73.64-0.67616c-2.4746 0.0362-2.2413 2.8783 0 0zm-146.12-1.2917c-1.3957-4.2852-4.585 4.7179 0 0zm184.81 0.63908c-3.9102-0.67452-0.62433 1.252 0 0zm-90.976-2.0434c2.7511-1.084 10.011-5.7698 2.6848-3.9644-2.8582 0.32558-12.97 3.1317-5.8713 5.2541 1.085-0.37132 2.1446-0.81201 3.1866-1.2897zm43.898 0.97207c0.47784-3.4104-5.1527 3.2846 3e-5 0h-3e-5zm20.186-1.475c0.9531-3.0872-5.3594 2.2289 0 0zm-14.495-0.7629c-3.525-3.0855-4.1022 2.9863 0 0zm-144.88-1.4304c5.485-4.1364-8.4285 1.4252-1.5668 1.0102l0.79516-0.45483 0.77165-0.55541zm171.58 0.0102c4.7183-0.70071 2.558-0.78094-0.9169-0.74258-3.0879-0.99019-12.303 3.1642-4.112 1.5969 1.6818-0.25098 3.3598-0.52942 5.0289-0.85432zm-18.373-1.4156c-3.5536-1.8151-4.6923 5.008 0 0zm-141.45-0.97877c-0.23497-2.6972-3.3725 2.7254 0 0zm117.34-0.33248c3.218-4.6028-11.262 2.5914-2.352 0.88356l0.91664-0.23073 1.4353-0.65283zm30.933 0.41614c1.5953-3.3263-7.5709 1.8635-1.0612 0.43823l1.0612-0.43823zm-48.38-1.2523c4.0186-0.87185 6.7544-3.6968 0.62602-2.0166-3.8964-0.31002-9.4372 4.463-2.2048 2.768l0.86407-0.32998 0.71473-0.42143zm-83.493-1.5466c-1.9054-1.5368-1.6343 2.7423 0 0zm24.839-2.2194c2.6308-4.0094-7.8808 4.0379 0 0zm48.542 0.59893c-3.3926-0.56017 0.43097 1.3909 0 8e-5v-8e-5zm24.079 0.0267c10.83-1.889-7.9946-3.2889-5.5231 0.46122 1.8496 2e-5 3.6883-0.25657 5.5231-0.46122zm-34.14-1.0314c-1.4996-2.7234-3.1611 2.9096 0 0zm-20.935-1.1201c3.1353-3.764-8.6604 2.3152-1.4787 0.79106l1.4787-0.79106zm15.595-1.2587c-1.3063-1.6964-2.1504 3.0839-0.2241 0.67729l0.2241-0.67729zm-8.0105-1.4358c3.2882 0.085 8.2203-3.3862 2.2098-2.2864-2.6544 0.0867-10.066 3.4303-3.1222 2.842l0.91242-0.55645v7.8e-4zm-8.3919-1.5258c-2.6378-2.716-7.2556 2.0764-1.0053 0.5388l1.0053-0.5388zm4.1396-1.0764c0.87615-5.0971-6.2859 3.9086 1e-5 0h-1e-5zm81.915 388.55c-6.5572-2.5763 6.5693-1.8254 8.9274-1.8966 3.705-0.30741 15.151 0.53545 5.4516 2.344-4.7585 0.55189-9.6947 0.69684-14.379-0.44744zm320.87-6.6859c-14.193-9.2428-17.542-28.521-14.055-44.034 1.4135-3.801 3.4896-11.683 7.408-11.667-0.50299 9.226-6.1217 18.016-3.966 27.495 1.4456 8.5183 2.7787 18.123 9.9911 23.855 3.1939 1.4604 10.384 6.9951 2.366 5.3863l-0.7983-0.45047-0.946-0.58549h1e-4zm-68.426-10.971c-4.9902-8.8208-6.492-18.973-5.807-28.977 0.5088-8.1475 0.59301-16.691 3.8656-24.289 4.7036-1.1503-0.7646 8.7513 0.99809 12.134-1.435 15.062-1.1012 30.965 5.4079 44.931 2.0216 7.0229-4.4127-2.2487-4.4647-3.7992zm-240.84 3.2423c-0.40426-4.9273 13.42-9.8916 9.2748-1.991-2.2827 2.133-6.4174 3.838-9.2748 1.991zm316.7-7.7954c-1.9442-5.5117-3.3828-10.794-9.2119-12.756-5.3092-7.9558-2.9496-19.511 3.977-25.684 6.1763-0.5225-4.3612 9.0951-0.33479 10.813 7.0517-7.4873 3.8934 6.7339 3.6026 10.628 5e-3 1.6117 4.1738-3.3488 3.5221 2.1618-0.23379 4.5594 2.6556 13.865-0.8563 15.789l-0.6987-0.95183v9e-5zm-343.98-0.47552c-6.455-4.3812 11.896-3.9828 4.5356 1.0574-1.581 0.65445-3.2002-0.30144-4.5356-1.0574zm-7.4398-14.498c1.3585-4.8753 8.934-2.6264 2.2949 0.2319-0.52055 0.17091-2.1385 0.9298-2.2949-0.2319zm64.847-6.0415c2.1055-6.9435 5.352-14.356 3.6349-21.579 4.7105-1.2875-0.8368-12.226 4.8727-7.7387 3.5795 7.1444 1.0381 14.71-2.0119 21.554-1.3745 2.7888-1.7463 10.562-6.4957 7.7637zm226.94-5.063c-2.8514-5.9896-7.7651-14.363-2.145-20.22 5.783-7.8608 14.783-12.649 23.948-15.278 6.7603-1.76 4.9128 2.8448-0.19343 3.7754-7.4987 1.9373-8.9175 10.073-13.115 15.886-3.5833 3.4255-1.4014 21.656-8.4949 15.835zm2.6906-15.555c1.5868-2.0253 8.854-10.797 1.9857-6.1582 0.32106 1.3116-6.0846 8.5668-1.9857 6.1582zm-214.67 13.445c-1.5646-7.7611-3.6301-16.306-0.57216-23.944 4.2322 3.075 3.74 12.619 3.2823 18.204-0.48902 1.2358-0.1303 8.4804-2.7101 5.74zm271.13-15.894c-0.20056-9.1518 5.5709 2.9116 0.57374 3.6058-0.70164-1.0527-0.49684-2.413-0.57374-3.6058zm-11.825-0.82902c-5.0239-3.1169-15.644-1.2465-16.983-7.7776 2.9121-6.8755-1.3281-11.724-7.0479-14.98 5.0411-3.4719 15.782 4.4148 13.796 11.163-1.6137 6.4206 10.65 3.1743 14.62 6.2297 9.5763 2.0037 0.53222 7.8333-4.3852 5.3648zm-62.645-58.295c0.11516-3.6568-0.77159-15.858 4.0072-7.8271 0.88943 5.4331-0.94353 15.224-3.5271 18.44-0.69912-3.4774-0.42176-7.0847-0.48013-10.613zm-10.748 4.577c0.21509-5.9812-5.1038-20.478 4.7798-19.121 1.8943 5.3095 4.7914 16.627 1.1232 19.418-2.6665-3.6972-0.87228-10.341-3.4084-13.098-2.1818 2.9182 1.0725 13.29-2.4946 12.8zm-102.46-10.254c3.4051-5.9705-0.99756-0.85709-4.2703-1.0809-7.3952-3.9897 2.4657-10.458 6.4614-14.441 5.8082-3.0523-3.1998 6.1593-4.2977 8.4891-4.2519 6.6152 5.3268-4.2686 7.409-5.7482 7.3485-6.3568-0.92618 4.5382-2.7119 6.7449 2.092 4.5157 7.8943-10 11.281-6.6116-2.8613 4.2894-10.536 14.373-13.872 12.648zm-56.073 0.15055c-6.2721 0.23691 5.4797-2.7833-0.93579-2.0733-3.3317 1.2645-10.492-0.90854-3.0721-2.079 7.1668-1.1059 10.718-8.5534 17.016-11.591 5.5877-4.9905 12.078-8.3607 18.543-12.029 3.1151-2.6216 9.408-2.4636 2.8137 0.82787-6.0081 3.0239-12.196 5.5367-17.052 10.391-4.6162 3.7768-9.0638 7.7521-13.498 11.739 6.9984 0.43816 10.595-7.2983 16.284-10.183 4.7395-3.7631 13.598-5.7126 18.073-6.8002-3.1659 1.7527-8.3835 11.444-1.0984 6.071 2.8197-2.1123 9.0901-4.7171 4.6472 0.56748 2.491 0.0151 13.637-7.243 8.8903-1.252-3.5035 2.6721-5.2588 3.496 0.0747 3.0408 0.93061 5.0971-13.659 12.291-6.7693 3.588 4.6708-5.9655-5.4587 2.3919-7.934-0.82835-3.5747 1.3951-12.294 11.56-13.019 5.0746-4.9463 7.4779-13.277 6.3775-21.456 5.6764l-1.5057-0.14057 5e-5 4.9e-4zm17.302-4.4735c2.6048-5.2655 12.138-8.5341 12.812-12.459-8.7139 3.2764-14.535 11.786-23.464 14.657 2.4652 1.9611 9.244 1.6277 10.652-2.1982zm-38.71 1.272c-9.1766-6.674-16.027-16.096-25.322-22.602-7.4935-3.796-15.789-5.5294-23.698-8.2288-2.7235 0.0546-11.896-1.6598-4.3548-3.1217 6.3107 0.25156 1.5977-3.4124 1.8306-5.6086 4.4043-2.4042 6.381 6.4371 8.3817 2.0683 1.6041-3.6198 12.074-1.7527 16.953-3.2911 3.8221 0.13714 10.539-3.0224 12.755-0.81724-2.8366 1.3048-10.631 1.4229-11.068 3.3158 4.9891-1.039 4.6408 5.6875 10.293 2.676 6.001-1.2946 9.8091 8.8829 3.6985 9.2388 1.9856 0.32854 13.263 3.2919 7.2257 5.1039-3.2482-0.17046-10.761-6.0892-11.774-2.783 1.689 1.9421 14.677 7.9396 7.0251 7.886-8.7973-1.4486 4.7101 7.9887 5.298 11.622 7.8401 0.23339 12.755-7.772 19.361-10.954 2.1175-2.0023 11.808-9.3036 6.0233-2.4834-4.3477 4.3464-10.996 7.7357-14.033 12.438 4.3458-0.27282 7.4568-4.8636 11.956-1.8979 5.1565-4.4721 10.896-8.1893 15.782-12.993 3.0202-3.5075 7.1437-2.4213 1.9806 0.71106-6.0068 4.3626-10.883 10.83-16.78 14.635-6.46 3.2622-14.162 6.3078-21.533 5.0842zm-36.191-37.091c-3.7106-1.7813-1.256 2.7466 0 0zm33.568 29.595c1.3946-2.784 13.8-7.8717 7.2094-2.0447-1.8137 0.97828-5.3616 3.8224-7.2094 2.0447zm19.835-1.5751c4.8078-5.0834 10-11.097 15.856-14.397-3.9442 5.2009-8.9323 12.112-15.568 14.97l-0.21771-0.19341-0.0701-0.37972zm-21.991-2.1621c1.9613-5.1092 11.98-4.9006 12.82-8.2616-3.5386 0.38426-8.5218-0.85354-3.1011-3.3135 6.2467-3.8762 14.192-4.6045 20.283-9.1487 2.8852-2.7911 11.129-4.2915 4.0149 0.085-4.7478 4.8285-12.004 5.7353-17.389 8.808 3.4475-0.65083 11.612-2.2778 5.486 3.0352-4.0987 4.2044-7.6257 6.7825-13.011 4.5721-2.2979 0.74246-7.3777 6.5537-9.1031 4.2235zm16.651-8.242c-2.5196-2.8901-2.6958 3.7507 0 0zm71.331 4.172c3.3128-2.8226 0.39185 2.5812 0 0zm9.5363-1.8622c1.4468-3.687 1.7561 2.6856 0 0zm-13.398-2.7918c0.0916-3.6214 8.1739-6.4897 2.7527-1.0784-0.6803 0.58245-1.953 2.3501-2.7527 1.0784zm8.0578-0.30488c3.4902-4.8737 0.67671 4.2636 0 0zm-42.722-4.8385c3.5865-2.4941 10.098-7.9311 13.558-6.0971-3.9152 2.481-9.5906 5.5009-13.558 6.0971zm-9.3812-1.9743c6.1331-4.8888 13.353-8.8258 20.532-12.177 2.8036-2.407 7.0593-0.47974 1.8184 1.0615-6.28 3.7336-13.642 6.1754-19.335 11.088-0.64785 0.33082-6.0164 4.4186-3.0152 0.027zm-39.254-2.466c-3.6233-3.6301 7.7484-0.98705 2.2339-6.3511-4.1463-1.5877-6.2922-4.6638-0.0692-3.9981 5.9725 1.1819 14.962-1.4261 19.096 2.5048-4.6039 6.2881-12.334 6.5075-19.513 7.9932l-0.84086 0.0536-0.90672-0.20236v-2e-5zm85.445-3.083c-3.9793-1.3773-4.9829-4.1211 0.38145-2.7984 4.5058 2.2868 9.3463-6.7831 11.53 0.49817-1.9536 5.2201-7.8972 4.9402-11.911 2.3002zm-16.557-2.8285c6.1853-2.547-2.7254 3.3998 0 0zm-81.286-2.7233c6.0354-4.897 5.7025 3.1284 0 0zm57.218-0.36019c2.4058-2.8931 10.728-2.9407 2.8712-0.36156-0.72365 0.21432-2.2383 1.2676-2.8712 0.36156zm37.681-0.28362c4.0822-0.47235 7.9245-9.2608 9.7008-1.9421 2.5605 2.9906-9.2615 2.718-9.7008 1.9421zm-16.293-2.663c2.7658-3.3932 9.0873-1.8845 2.2812 0.35121-0.62999 0.2526-4.239 1.4987-2.2812-0.35121zm-12.064-1.414c2.46-2.935 10.215-3.4026 3.2355-0.0879-0.81167 0.3259-3.2864 2.0051-3.2355 0.0879zm26.531 0.12894c5.244-2.6887 6.7034 2.3507 0 0zm-38.145-1.009c6.2338-3.9063 13.395-6.0143 19.706-9.733 8.0111-0.0779-10.1 5.5517-12.882 7.3319-2.1132 0.69548-4.6307 2.8872-6.8245 2.4011zm35.475-2.0426c3.9385-2.9263 1.6188 2.6756 0 0zm4.5774-0.7629c3.8367-2.563 7.8212 1.8127 1.4112 0.70859-0.22918-0.1985-1.6081 0.038-1.4112-0.70859zm-16.021-1.5258c3.3128-2.8226 0.39185 2.5812 0 0zm7.6801-1.5005c2.7568-2.3476 15.331-0.81639 5.9667 0.52038-1.7032-0.12505-4.8186 0.79316-5.9667-0.52038zm-30.941-2.1233c2.8456-3.088 9.0659-2.9077 2.382-0.23421-0.5793 0.088-2.3217 1.507-2.382 0.23421zm29.173-1.4239c-2.709-3.3195 16.253-0.44151 4.7659-0.0637-1.5776 0.17907-3.1919 0.45518-4.7659 0.0637zm-21.552-2.2417c2.5872-2.8163 8.7535-2.6929 1.9299-0.4813l-1.0032 0.3295-0.92675 0.1518zm-122.6-3.5154c-7.7969-2.1731 3.5461-3.113 3.0805 0.30743-1.0411 0.2053-2.0777-0.0668-3.0805-0.30743zm139.59 0.42606c3.0564-0.70691 1.5175 1.3972 0 0zm-148.59-3.3536c0.98055-2.6205 5.561 1.932 0.78121 0.5388l-0.78121-0.5388zm9.6491-3.4422c-5.1288-2.332-11.588-5.7431-15.957-7.1358 7.0706 0.38149 14.102 3.778 20.152 6.9978 1.4334 3.9159-2.9551 0.72723-4.1952 0.13802zm114.72-1.1073c0.42813-4.5081 7.6399-4.6161 2.1353-0.12498-0.34474 0.75949-1.8147 1.2079-2.1353 0.12498zm154.38-4.4195c-4.4577-0.81231-8.9939-13.456-1.9412-7.0518 5.5958 6.6586 15.468-2.2573 11.046-9.0539-1.1915-2.9637-10.225-4.4787-3.1045-6.6683 9.4139 0.70698 11.322 12.445 6.1163 18.962-2.1124 3.3393-8.6846 6.3042-12.117 3.8122zm-274.94-5.8799c-5.0136-3.4074 8.5991 1.9213 0.93324 0.41564l-0.93324-0.41564zm130.83-0.79886c-8.1896-2.8643 4.7368-4.4668 1.549 0.7006l-0.73899-0.0498-0.81002-0.65084zm-125.73-5.0072c-0.92552-4.8658 5.5959 3.9762 0 1e-3v-1e-3zm-4.5124-1.93c3.0564-0.7069 1.5175 1.3972 0 0zm270.26-1.0292c-1.3686-5.1403 7.2044-9.9358 3.7257-2.1809-0.60914 0.96754-2.4485 3.5562-3.7257 2.1809zm-275.62-0.82231c-5.89-3.3864 7.741 0.93654 1.6117 0.53333l-1.6117-0.53339v6e-5zm-10.108-2.9673c-4.4212 0.01-6.8732-4.5929-0.69691-1.8445 3.8998 1.2893 7.9485 3.5367 0.69691 1.8445zm-17.96-0.87419c-0.34982-3.906 5.1296 3.4811 5e-5 0h-5e-5zm26.924-4.32c-3.714-0.0477-8.8261-3.2252-1.7172-2.1452 2.8942-0.46759 14.032 4.6251 5.4197 2.8381-1.2356-0.22317-2.469-0.45799-3.7024-0.69289zm117.38-1.457c-6.2325-2.0931-13.808-7.1233-12.144-14.636 5.1432 1.8019 5.8565 10.464 13.104 10.862 2.8081 0.55623 15.052 1.9759 8.3619 4.9381-3.1397 0.16383-6.3102-0.28115-9.3222-1.1633zm-145.42-1.4198c-6.0756-2.5637 8.7709-0.41276 3.0999 1.077-1.0991-0.13333-2.1436-0.53548-3.0999-1.077zm38.641-3.0272c1.1726-5.8812 4.5161 4.1207 0 0zm-10.327-1.2863c-6.9912-4.0341 11.806 0.5813 2.2725 0.56597l-1.0588-0.23897-1.2137-0.32705v5e-5zm99.853 0.32271c-7.8731-2.3458-0.34782-9.8381 2.9185-3.4517-2.8032 1.0103 1.4038 5.4076-2.9185 3.4517zm-106.62-2.2362c-3.6057-4.2063 7.9818 1.4528 1.1216 0.28217l-1.1217-0.28217h9e-5zm-24.794-2.6702c-7.1724-3.9564 13.038-0.18253 2.9398 0.73411-1.0052-0.12463-1.9893-0.38898-2.9398-0.73411zm-6.2939-2.1649c1.6945-2.8758 5.2797 3.2442 0 0zm48.058-0.77002c-0.37127-4.3328 7.8254 0.71376 0.9149 0.58937l-0.53426-0.21528-0.38064-0.37409zm-19.45-1.6472c-9.4772-2.5685 5.6072-3.0331 4.4366 0.64687-1.4884 0.42782-3-0.36264-4.4366-0.64687zm107.82 0.12563c-7.1226-3.5245-8.988-12.974-15.466-16.249-4.61-1.685 7.0759-4.2555 6.7479 1.3086 1.5545 6.0983 12.836 9.5653 10.945 15.612l-0.86264-0.1651-1.3647-0.50655v-2e-5zm-63.061-3.559c0.10542-5.5424 10.352-2.2688 2.2412 0.21299-0.68244 0.2882-1.6945 0.46172-2.2412-0.21299zm-77.941-1.7756c-3.2846-0.36839-8.5817-3.3652-2.0678-2.9617 4.0266-0.32154 9.3915 5.5629 2.0678 2.9617v-2e-5zm43.627-0.35183c-3.0501-10.435 8.3929 3.0831 0 0zm-18.451-2.3487c-4.5275-3.4769 9.1796 2.077 0.95064 0.4274l-0.95064-0.4274zm-6.6103-1.4967c-3.9311-1.6176-12.795 0.54969-13.915-3.2382 4.2824 0.26098 16.508 1.322 15.846 3.6181l-1.2072-0.11157-0.72399-0.26836zm10.139-1.8134c2.1738-2.9358 1.109 2.2001 0 0zm63.36-0.53818c1.4263-2.8156 12.875-9.1737 10.682-4.2598-2.5533 1.3951-8.2957 8.2942-10.682 4.2598zm-72.009-1.9213c-3.0832-2.616-12.58 2.593-11.95-3.3473 5.0121-0.96178 18.347-1.6239 17.666 4.8015-2.0118 0.22401-3.9476-0.60821-5.7161-1.4542zm-26.585-0.24871c-3.1852 0.56361-9.3452-4.3702-2.6502-3.1592 3.0276-0.0529 16.99 3.8527 8.2212 4.0451-1.8755-0.15907-3.7332-0.48575-5.571-0.88584zm114.87-6.5254c2.8363-0.94789 8.9187-5.3567 11.791-3.2827-2.5304 2.9282-8.1209 4.5115-11.791 3.2827zm-135.68-2.0509c-1.4775-4.6849 9.1059-2.6772 1.6432 0.4246l-0.88652 0.0176-0.75668-0.44221zm11.431-3.6629c1.006-5.2216 5.895 4.553 0 0zm139.88-0.0804c3.8246-4.1716 3.2608 4.8051 0 0zm18.389-1.786c-0.79594-3.7425 10.686-3.9129 3.4777 0.25735-1.0806 0.6307-2.4825 0.44026-3.4777-0.25735zm-190.04-1.5912c2.7854-5.4525 2.3151 5.244 0 0zm-24.059-0.80758c-3.5201 1.5082-12.715-3.5876-8.4107-6.5696 6.107 6.9314 13.294 0.59998 20.878 1.012 8.101 2.0786-2.476 6.4043-6.2578 4.3033-2.0937 0.028-4.3194 3.544-6.2093 1.2543zm342.19-118.2c4.1372-2.7808 10.445-12.03 14.954-8.1552-2.1943 5.9432-9.6622 6.7905-14.851 8.5788l-0.10306-0.4236zm89.832-25.246c-6.8552-8.0508 9.055-10.865 6.4071-18.125-3.0623-4.5025-15.57-13.165-4.5313-16.36 7.2446 3.2438 11.531-13.194 18.09-3.5162 3.8243 6.1127-13.394 8.1102-3.9179 14.159 9.6844 2.9429 3.4155 12.906-3.8236 13.948 2.9652 1.0115 9.6359 11.366 1.7277 9.428-5.5505-5.0255-9.3028 1.931-13.952 0.46661zm-125.69-75.848c-0.0259-9.2654 4.917 5.4649 0.2543 2.6702l-0.1947-1.0609-0.0596-1.6092zm82.764-1.1614c-4.7717-4.7003-13.376-4.9336-17.625-8.8594 6.6556-0.91147 12.621 3.2974 18.642 5.457 1.9754 1.459 2.5241 6.0893-1.0165 3.4024zm-78.42-1.2337c-0.30197-4.3622 3.8184 1.9825 0 0zm-5.3611-88.517c-1.7104-5.8524 10.756-4.1214 2.2319-0.0793-0.56713 0.49225-1.6891 0.84496-2.2319 0.0793zm121.83-31.924c2.1979-9.1837 8.9048 2.9435 0.47706 0.71524l-0.47706-0.71524z"/>
 </g>
</svg>
